<svg width="16" height="16" viewBox="0 0 16 16" fill="none" xmlns="http://www.w3.org/2000/svg">
    <g clip-path="url(#clip0_187_11325)">
        <path d="M11.9464 4H3.98438V5.33333H11.9464V4Z" fill="black"/>
        <path d="M11.9464 7.33203H3.98438V8.66536H11.9464V7.33203Z" fill="black"/>
        <path d="M9.29237 10.668H3.98438V12.0013H9.29237V10.668Z" fill="black"/>
        <path d="M13.2706 0H2.65456C2.12665 0 1.62036 0.210714 1.24707 0.585786C0.873775 0.960859 0.664063 1.46957 0.664062 2V14C0.664063 14.5304 0.873775 15.0391 1.24707 15.4142C1.62036 15.7893 2.12665 16 2.65456 16H13.2706C13.7985 16 14.3048 15.7893 14.6781 15.4142C15.0513 15.0391 15.2611 14.5304 15.2611 14V2C15.2611 1.46957 15.0513 0.960859 14.6781 0.585786C14.3048 0.210714 13.7985 0 13.2706 0ZM13.9341 13.3333C13.9341 13.5101 13.8642 13.6797 13.7397 13.8047C13.6153 13.9298 13.4465 14 13.2706 14H2.65456C2.47859 14 2.30983 13.9298 2.1854 13.8047C2.06097 13.6797 1.99106 13.5101 1.99106 13.3333V2.66667C1.99106 2.48986 2.06097 2.32029 2.1854 2.19526C2.30983 2.07024 2.47859 2 2.65456 2H13.2706C13.4465 2 13.6153 2.07024 13.7397 2.19526C13.8642 2.32029 13.9341 2.48986 13.9341 2.66667V13.3333Z"
              fill="black"/>
    </g>
    <defs>
        <clipPath id="clip0_187_11325">
            <rect width="15.924" height="16" fill="white"/>
        </clipPath>
    </defs>
</svg>
