<svg width="45" height="72" viewBox="0 0 45 72" fill="none" xmlns="http://www.w3.org/2000/svg">
    <path d="M7.27527 49.424C7.33927 47.712 7.89927 46.392 8.95527 45.464C10.0113 44.536 11.4433 44.072 13.2513 44.072C14.4513 44.072 15.4753 44.28 16.3233 44.696C17.1873 45.112 17.8353 45.68 18.2673 46.4C18.7153 47.12 18.9393 47.928 18.9393 48.824C18.9393 49.88 18.6753 50.744 18.1473 51.416C17.6193 52.072 17.0033 52.52 16.2993 52.76V52.856C17.2113 53.16 17.9313 53.664 18.4593 54.368C18.9873 55.072 19.2513 55.976 19.2513 57.08C19.2513 58.072 19.0193 58.952 18.5553 59.72C18.1073 60.472 17.4433 61.064 16.5633 61.496C15.6993 61.928 14.6673 62.144 13.4673 62.144C11.5473 62.144 10.0113 61.672 8.85927 60.728C7.72327 59.784 7.12327 58.36 7.05927 56.456H11.0433C11.0593 57.16 11.2593 57.72 11.6433 58.136C12.0273 58.536 12.5873 58.736 13.3233 58.736C13.9473 58.736 14.4273 58.56 14.7633 58.208C15.1153 57.84 15.2913 57.36 15.2913 56.768C15.2913 56 15.0433 55.448 14.5473 55.112C14.0673 54.76 13.2913 54.584 12.2193 54.584H11.4513V51.248H12.2193C13.0353 51.248 13.6913 51.112 14.1873 50.84C14.6993 50.552 14.9553 50.048 14.9553 49.328C14.9553 48.752 14.7953 48.304 14.4753 47.984C14.1553 47.664 13.7153 47.504 13.1553 47.504C12.5473 47.504 12.0913 47.688 11.7873 48.056C11.4993 48.424 11.3313 48.88 11.2833 49.424H7.27527ZM33.2545 50.48C32.9505 49.92 32.5105 49.496 31.9345 49.208C31.3745 48.904 30.7105 48.752 29.9425 48.752C28.6145 48.752 27.5505 49.192 26.7505 50.072C25.9505 50.936 25.5505 52.096 25.5505 53.552C25.5505 55.104 25.9665 56.32 26.7985 57.2C27.6465 58.064 28.8065 58.496 30.2785 58.496C31.2865 58.496 32.1345 58.24 32.8225 57.728C33.5265 57.216 34.0385 56.48 34.3585 55.52H29.1505V52.496H38.0785V56.312C37.7745 57.336 37.2545 58.288 36.5185 59.168C35.7985 60.048 34.8785 60.76 33.7585 61.304C32.6385 61.848 31.3745 62.12 29.9665 62.12C28.3025 62.12 26.8145 61.76 25.5025 61.04C24.2065 60.304 23.1905 59.288 22.4545 57.992C21.7345 56.696 21.3745 55.216 21.3745 53.552C21.3745 51.888 21.7345 50.408 22.4545 49.112C23.1905 47.8 24.2065 46.784 25.5025 46.064C26.7985 45.328 28.2785 44.96 29.9425 44.96C31.9585 44.96 33.6545 45.448 35.0305 46.424C36.4225 47.4 37.3425 48.752 37.7905 50.48H33.2545Z"
          fill="black"/>
    <path d="M41.9401 13.8823C41.2944 13.8716 40.6503 13.6142 40.1629 13.1154C35.4556 8.28762 29.1368 5.56621 22.3755 5.45372C15.6142 5.34123 9.20845 7.85094 4.3432 12.5169C3.33285 13.4917 1.72144 13.4573 0.749241 12.4444C-0.22296 11.4316 -0.188522 9.82017 0.82429 8.85051C6.66368 3.24727 14.3491 0.235084 22.4601 0.370031C30.5711 0.504978 38.1521 3.77115 43.8018 9.56555C44.7818 10.5709 44.7626 12.18 43.7573 13.16C43.2533 13.6525 42.5933 13.8932 41.9401 13.8823Z"
          fill="#1434CB"/>
    <path d="M34.9683 20.5679C34.3202 20.5571 33.6786 20.2998 33.1911 19.8009C30.2813 16.8159 26.3835 15.1365 22.2149 15.0672C18.0463 14.9978 14.0948 16.5466 11.0872 19.4332C10.0744 20.4054 8.46548 20.3735 7.49332 19.3581C6.52112 18.3453 6.55547 16.739 7.56837 15.7642C11.5474 11.9454 16.7811 9.89166 22.2995 9.98347C27.8178 10.0753 32.9803 12.302 36.8301 16.2536C37.81 17.259 37.7909 18.8681 36.7855 19.848C36.2815 20.3405 35.6241 20.5788 34.9683 20.5679Z"
          fill="#1434CB"/>
    <path d="M27.9978 27.2554C27.3446 27.2446 26.6955 26.9821 26.2081 26.4756C24.0363 24.2148 20.0913 24.1491 17.8455 26.3365C16.8401 27.3139 15.231 27.2948 14.2511 26.2894C13.2712 25.2815 13.2929 23.6724 14.2982 22.6925C16.3968 20.6476 19.1814 19.5472 22.1401 19.5964C25.0988 19.6457 27.8453 20.8381 29.8746 22.9516C30.8468 23.9645 30.815 25.5734 29.8021 26.5456C29.2983 27.0305 28.646 27.2662 27.9978 27.2554Z"
          fill="#1434CB"/>
</svg>
