<svg width="45" height="72" viewBox="0 0 45 72" fill="none" xmlns="http://www.w3.org/2000/svg">
    <path d="M6.3718 58.88V55.568L13.9558 44.72H18.5398V55.328H20.5078V58.88H18.5398V62H14.4358V58.88H6.3718ZM14.7238 49.232L10.6918 55.328H14.7238V49.232ZM34.11 50.48C33.806 49.92 33.366 49.496 32.79 49.208C32.23 48.904 31.566 48.752 30.798 48.752C29.47 48.752 28.406 49.192 27.606 50.072C26.806 50.936 26.406 52.096 26.406 53.552C26.406 55.104 26.822 56.32 27.654 57.2C28.502 58.064 29.662 58.496 31.134 58.496C32.142 58.496 32.99 58.24 33.678 57.728C34.382 57.216 34.894 56.48 35.214 55.52H30.006V52.496H38.934V56.312C38.63 57.336 38.11 58.288 37.374 59.168C36.654 60.048 35.734 60.76 34.614 61.304C33.494 61.848 32.23 62.12 30.822 62.12C29.158 62.12 27.67 61.76 26.358 61.04C25.062 60.304 24.046 59.288 23.31 57.992C22.59 56.696 22.23 55.216 22.23 53.552C22.23 51.888 22.59 50.408 23.31 49.112C24.046 47.8 25.062 46.784 26.358 46.064C27.654 45.328 29.134 44.96 30.798 44.96C32.814 44.96 34.51 45.448 35.886 46.424C37.278 47.4 38.198 48.752 38.646 50.48H34.11Z"
          fill="black"/>
    <path d="M41.9401 13.8823C41.2944 13.8716 40.6503 13.6142 40.1629 13.1154C35.4556 8.28762 29.1368 5.56621 22.3755 5.45372C15.6142 5.34123 9.20845 7.85094 4.3432 12.5169C3.33285 13.4917 1.72144 13.4573 0.749241 12.4444C-0.22296 11.4316 -0.188522 9.82017 0.82429 8.85051C6.66368 3.24727 14.3491 0.235084 22.4601 0.370031C30.5711 0.504978 38.1521 3.77115 43.8018 9.56555C44.7818 10.5709 44.7626 12.18 43.7573 13.16C43.2533 13.6525 42.5933 13.8932 41.9401 13.8823Z"
          fill="#1434CB"/>
    <path d="M34.9683 20.5679C34.3202 20.5571 33.6786 20.2998 33.1911 19.8009C30.2813 16.8159 26.3835 15.1365 22.2149 15.0672C18.0463 14.9978 14.0948 16.5466 11.0872 19.4332C10.0744 20.4054 8.46548 20.3735 7.49332 19.3581C6.52112 18.3453 6.55547 16.739 7.56837 15.7642C11.5474 11.9454 16.7811 9.89166 22.2995 9.98347C27.8178 10.0753 32.9803 12.302 36.8301 16.2536C37.81 17.259 37.7909 18.8681 36.7855 19.848C36.2815 20.3405 35.6241 20.5788 34.9683 20.5679Z"
          fill="#1434CB"/>
    <path d="M27.9978 27.2554C27.3446 27.2446 26.6955 26.9821 26.2081 26.4756C24.0363 24.2148 20.0913 24.1491 17.8455 26.3365C16.8401 27.3139 15.231 27.2948 14.2511 26.2894C13.2712 25.2815 13.2929 23.6724 14.2982 22.6925C16.3968 20.6476 19.1814 19.5472 22.1401 19.5964C25.0988 19.6457 27.8453 20.8381 29.8746 22.9516C30.8468 23.9645 30.815 25.5734 29.8021 26.5456C29.2983 27.0305 28.646 27.2662 27.9978 27.2554Z"
          fill="#1434CB"/>
</svg>
