<svg width="45" height="72" viewBox="0 0 45 72" fill="none" xmlns="http://www.w3.org/2000/svg">
    <path d="M18.4282 48.056H10.9402V51.368C11.2602 51.016 11.7082 50.728 12.2842 50.504C12.8602 50.28 13.4842 50.168 14.1562 50.168C15.3562 50.168 16.3482 50.44 17.1322 50.984C17.9322 51.528 18.5162 52.232 18.8842 53.096C19.2522 53.96 19.4362 54.896 19.4362 55.904C19.4362 57.776 18.9082 59.264 17.8522 60.368C16.7962 61.456 15.3082 62 13.3882 62C12.1082 62 10.9962 61.784 10.0522 61.352C9.10821 60.904 8.38021 60.288 7.86821 59.504C7.35621 58.72 7.07621 57.816 7.02821 56.792H11.0362C11.1322 57.288 11.3642 57.704 11.7322 58.04C12.1002 58.36 12.6042 58.52 13.2442 58.52C13.9962 58.52 14.5562 58.28 14.9242 57.8C15.2922 57.32 15.4762 56.68 15.4762 55.88C15.4762 55.096 15.2842 54.496 14.9002 54.08C14.5162 53.664 13.9562 53.456 13.2202 53.456C12.6762 53.456 12.2282 53.592 11.8762 53.864C11.5242 54.12 11.2922 54.464 11.1802 54.896H7.22021V44.456H18.4282V48.056ZM33.2936 50.48C32.9896 49.92 32.5496 49.496 31.9736 49.208C31.4136 48.904 30.7496 48.752 29.9816 48.752C28.6536 48.752 27.5896 49.192 26.7896 50.072C25.9896 50.936 25.5896 52.096 25.5896 53.552C25.5896 55.104 26.0056 56.32 26.8376 57.2C27.6856 58.064 28.8456 58.496 30.3176 58.496C31.3256 58.496 32.1736 58.24 32.8616 57.728C33.5656 57.216 34.0776 56.48 34.3976 55.52H29.1896V52.496H38.1176V56.312C37.8136 57.336 37.2936 58.288 36.5576 59.168C35.8376 60.048 34.9176 60.76 33.7976 61.304C32.6776 61.848 31.4136 62.12 30.0056 62.12C28.3416 62.12 26.8536 61.76 25.5416 61.04C24.2456 60.304 23.2296 59.288 22.4936 57.992C21.7736 56.696 21.4136 55.216 21.4136 53.552C21.4136 51.888 21.7736 50.408 22.4936 49.112C23.2296 47.8 24.2456 46.784 25.5416 46.064C26.8376 45.328 28.3176 44.96 29.9816 44.96C31.9976 44.96 33.6936 45.448 35.0696 46.424C36.4616 47.4 37.3816 48.752 37.8296 50.48H33.2936Z"
          fill="black"/>
    <path d="M41.9401 13.8823C41.2944 13.8716 40.6503 13.6142 40.1629 13.1154C35.4556 8.28762 29.1368 5.56621 22.3755 5.45372C15.6142 5.34123 9.20845 7.85094 4.3432 12.5169C3.33285 13.4917 1.72144 13.4573 0.749241 12.4444C-0.22296 11.4316 -0.188522 9.82017 0.82429 8.85051C6.66368 3.24727 14.3491 0.235084 22.4601 0.370031C30.5711 0.504978 38.1521 3.77115 43.8018 9.56555C44.7818 10.5709 44.7626 12.18 43.7573 13.16C43.2533 13.6525 42.5933 13.8932 41.9401 13.8823Z"
          fill="#1434CB"/>
    <path d="M34.9683 20.5679C34.3202 20.5571 33.6786 20.2998 33.1911 19.8009C30.2813 16.8159 26.3835 15.1365 22.2149 15.0672C18.0463 14.9978 14.0948 16.5466 11.0872 19.4332C10.0744 20.4054 8.46548 20.3735 7.49332 19.3581C6.52112 18.3453 6.55547 16.739 7.56837 15.7642C11.5474 11.9454 16.7811 9.89166 22.2995 9.98347C27.8178 10.0753 32.9803 12.302 36.8301 16.2536C37.81 17.259 37.7909 18.8681 36.7855 19.848C36.2815 20.3405 35.6241 20.5788 34.9683 20.5679Z"
          fill="#1434CB"/>
    <path d="M27.9978 27.2554C27.3446 27.2446 26.6955 26.9821 26.2081 26.4756C24.0363 24.2148 20.0913 24.1491 17.8455 26.3365C16.8401 27.3139 15.231 27.2948 14.2511 26.2894C13.2712 25.2815 13.2929 23.6724 14.2982 22.6925C16.3968 20.6476 19.1814 19.5472 22.1401 19.5964C25.0988 19.6457 27.8453 20.8381 29.8746 22.9516C30.8468 23.9645 30.815 25.5734 29.8021 26.5456C29.2983 27.0305 28.646 27.2662 27.9978 27.2554Z"
          fill="#1434CB"/>
</svg>
