<svg width="56" height="56" viewBox="0 0 56 56" fill="none" xmlns="http://www.w3.org/2000/svg">
<path d="M55.0376 25.1159H52.3121V13.5837C52.3121 6.09374 46.3624 0 39.049 0C31.7363 0 25.7869 6.09355 25.7869 13.5837V42.185C25.7869 47.1758 21.823 51.2363 16.9505 51.2363C12.0772 51.2363 8.11247 47.1758 8.11247 42.185V30.3392H10.838C11.3692 30.3392 11.8 29.8982 11.8 29.3539V15.4837C11.8 14.9397 11.3692 14.4984 10.838 14.4984H9.93641V9.3163C9.93641 8.77221 9.50563 8.33099 8.97441 8.33099H2.82556C2.29435 8.33099 1.86357 8.77221 1.86357 9.3163V14.4986H0.961991C0.43078 14.4986 0 14.9398 0 15.4839V29.3539C0 29.8982 0.43078 30.3392 0.961991 30.3392H3.6875V42.185C3.6875 49.6752 9.63723 55.7687 16.9507 55.7687C24.2631 55.7687 30.2123 49.6752 30.2123 42.185V13.5837C30.2123 8.59288 34.1765 4.53242 39.0491 4.53242C43.9224 4.53242 47.8871 8.59268 47.8871 13.5837V25.1159H45.1616C44.6304 25.1159 44.1996 25.5571 44.1996 26.1012V39.9714C44.1996 40.5157 44.6304 40.9567 45.1616 40.9567H46.0632V46.1389C46.0632 46.6832 46.494 47.1242 47.0252 47.1242H53.1744C53.7057 47.1242 54.1364 46.6832 54.1364 46.1389V40.9567H55.038C55.5692 40.9567 56 40.5157 56 39.9714V26.1012C55.9996 25.5571 55.5688 25.1159 55.0376 25.1159ZM3.78755 10.3016H8.01281V14.4986H3.78755V10.3016ZM52.2121 45.1536H47.9868V40.9567H52.2121V45.1536Z" fill="#1434CB"/>
</svg>
