<svg width="48" height="48" viewBox="0 0 48 48" fill="none" xmlns="http://www.w3.org/2000/svg">
    <path d="M31.4684 35H16.0004C15.7168 35.0001 15.4364 34.9398 15.1779 34.8232C14.9193 34.7066 14.6885 34.5364 14.5008 34.3238C14.3131 34.1112 14.1727 33.8611 14.089 33.5901C14.0054 33.3191 13.9803 33.0334 14.0154 32.752L15.7344 19H31.7344L33.4534 32.752C33.4886 33.0334 33.4635 33.3191 33.3798 33.5901C33.2961 33.8611 33.1558 34.1112 32.9681 34.3238C32.7803 34.5364 32.5495 34.7066 32.291 34.8232C32.0324 34.9398 31.7521 35.0001 31.4684 35Z"
          stroke="black" stroke-width="2" stroke-miterlimit="10" stroke-linecap="square"/>
    <path d="M19.7344 22V17C19.7378 15.9402 20.1603 14.9248 20.9097 14.1754C21.6591 13.426 22.6746 13.0034 23.7344 13V13C24.7942 13.0034 25.8096 13.426 26.559 14.1754C27.3084 14.9248 27.7309 15.9402 27.7344 17V22"
          stroke="black" stroke-width="2" stroke-miterlimit="10" stroke-linecap="square"/>
</svg>