<svg width="29" height="27" viewBox="0 0 29 27" fill="none" xmlns="http://www.w3.org/2000/svg">    <path d="M14.3776 17.0507C15.8553 17.0507 17.0531 15.8529 17.0531 14.3752C17.0531 12.8976 15.8553 11.6998 14.3776 11.6998C12.9 11.6998 11.7021 12.8976 11.7021 14.3752C11.7021 15.8529 12.9 17.0507 14.3776 17.0507Z"          stroke="black" stroke-width="1.78366" stroke-linecap="round" stroke-linejoin="round"/>    <path d="M9.9179 21.0497C8.48612 20.0931 7.39995 18.7013 6.81982 17.08C6.23968 15.4587 6.19634 13.6938 6.69618 12.046C7.19603 10.3982 8.21257 8.95479 9.59566 7.92901C10.9788 6.90323 12.6551 6.34945 14.377 6.34945C16.099 6.34945 17.7753 6.90323 19.1584 7.92901C20.5415 8.95479 21.5581 10.3982 22.0579 12.046C22.5577 13.6938 22.5144 15.4587 21.9343 17.08C21.3541 18.7013 20.268 20.0931 18.8362 21.0497"          stroke="black" stroke-width="1.78366" stroke-linecap="round" stroke-linejoin="round"/>    <path d="M7.2428 25.6935C4.78946 24.1467 2.90526 21.8444 1.87409 19.1337C0.84292 16.4229 0.720642 13.4505 1.52568 10.6642C2.33071 7.87791 4.01946 5.42871 6.33746 3.68563C8.65547 1.94255 11.4772 1 14.3774 1C17.2777 1 20.0994 1.94255 22.4174 3.68563C24.7354 5.42871 26.4241 7.87791 27.2292 10.6642C28.0342 13.4505 27.9119 16.4229 26.8808 19.1337C25.8496 21.8444 23.9654 24.1467 21.5121 25.6935"          stroke="black" stroke-width="1.78366" stroke-linecap="round" stroke-linejoin="round"/></svg>