<svg width="456" height="303" viewBox="0 0 456 303" fill="none" xmlns="http://www.w3.org/2000/svg">
<path d="M395.633 47.2595C397.884 49.2282 400.058 51.252 402.159 53.3172C417.203 68.139 428.259 85.2388 436.084 102.755C443.105 118.497 452.382 134.009 454.598 150.145C459.844 188.328 449.397 225.932 424.555 254.307C414.476 265.83 403.695 277.062 390.017 285.687C376.343 294.309 359.473 300.243 340.949 300.125C314.789 299.966 288.778 288.096 262.466 282.274C258.121 281.313 253.756 280.514 249.378 279.888C237.654 278.189 225.902 277.699 214.506 278.427C194.674 279.703 176.118 284.625 156.449 286.419C131.285 288.716 105.844 282.687 83.6379 270.664C73.2634 265.042 63.6005 258.123 54.9989 250.122C49.0284 244.572 43.2921 238.48 37.9336 231.989C24.3403 215.54 13.1475 196.56 6.52435 177.409C-2.06834 152.576 -2.95781 127.476 8.60723 107.296C20.3163 86.8519 43.5897 72.1773 71.3373 67.7327C90.8552 64.6097 112.072 66.3567 131.529 63.1064C175.624 55.7361 204.164 24.2538 245.714 11.9062C252.059 10.0227 258.673 8.65468 265.468 7.78291C309.575 2.09752 361.325 17.2353 395.633 47.2595Z" fill="#EEF7F8"/>
<path d="M207.626 288.745C167.537 288.188 124.736 306.224 86.6912 286.127C83.1557 284.256 80.4043 289.677 83.8699 291.624C122.012 313.049 167.261 297.046 208.014 295.595C212.479 295.436 212.019 288.805 207.626 288.745Z" fill="#B8D8F5"/>
<path d="M241.616 276.607C237.594 277.174 238.765 283.247 242.762 282.764C245.957 282.382 249.207 282.547 252.334 283.324C254.04 283.747 255.861 283.139 256.5 281.367C257.04 279.875 256.266 277.61 254.539 277.215C250.237 276.238 245.994 275.99 241.616 276.607Z" fill="#EEF7F8"/>
<path d="M352.341 6.27485C375.682 13.0261 396.179 27.392 409.971 47.3944C412.193 50.6179 417.461 47.5375 415.239 44.2742C400.69 22.9111 378.939 6.98751 353.908 0.128101C349.953 -0.953621 348.414 5.13904 352.341 6.27485Z" fill="#B8D8F5"/>
<mask id="mask0_341_4583" style="mask-type:luminance" maskUnits="userSpaceOnUse" x="0" y="6" width="456" height="295">
<path d="M395.633 47.2595C397.884 49.2282 400.058 51.252 402.159 53.3172C417.203 68.139 428.259 85.2388 436.084 102.755C443.105 118.497 452.382 134.009 454.598 150.145C459.844 188.328 449.397 225.932 424.555 254.307C414.476 265.83 403.695 277.062 390.017 285.687C376.343 294.309 359.473 300.243 340.949 300.125C314.789 299.966 288.778 288.096 262.466 282.274C258.121 281.313 253.756 280.514 249.378 279.888C237.654 278.189 225.902 277.699 214.506 278.427C194.674 279.703 176.118 284.625 156.449 286.419C131.285 288.716 105.844 282.687 83.6379 270.664C73.2634 265.042 63.6005 258.123 54.9989 250.122C49.0284 244.572 43.2921 238.48 37.9336 231.989C24.3403 215.54 13.1475 196.56 6.52435 177.409C-2.06834 152.576 -2.95781 127.476 8.60723 107.296C20.3163 86.8519 43.5897 72.1773 71.3373 67.7327C90.8552 64.6097 112.072 66.3567 131.529 63.1064C175.624 55.7361 204.164 24.2538 245.714 11.9062C252.059 10.0227 258.673 8.65468 265.468 7.78291C309.575 2.09752 361.325 17.2353 395.633 47.2595Z" fill="white"/>
</mask>
<g mask="url(#mask0_341_4583)">
<path d="M7.98347 2.69565L-63.3442 294.465C-63.3442 295.229 -63.2824 295.973 -63.1523 296.699C-62.1692 302.502 -57.389 306.899 -51.6428 306.899H259.458C265.204 306.899 269.984 302.502 270.973 296.699C271.103 295.973 271.165 295.229 271.165 294.465L342.494 2.69565H7.98347Z" fill="#B8D8F5"/>
<path d="M117.873 165.576C117.873 163.694 119.132 18.7815 114.725 17.528C110.318 16.2713 -35.7289 15.0177 -39.5061 18.1548C-43.2831 21.2917 -39.5061 202.588 -40.765 203.215C-42.0241 203.843 -46.4307 203.843 -46.4307 203.843C-46.4307 203.843 -48.3191 222.035 -46.4307 223.29C-44.5422 224.544 140.713 226.379 141.883 223.266C143.053 220.153 141.794 199.451 139.905 200.706C138.017 201.961 119.761 201.961 119.132 200.079C118.502 198.197 117.873 165.576 117.873 165.576Z" fill="#92C6F6"/>
<path d="M75.5178 206.006C65.74 206.006 54.1913 205.84 42.3989 205.579V76.8052C51.1678 72.5009 60.9383 69.3983 71.3367 67.7327C81.975 66.0306 93.1166 65.7751 104.204 65.3689C105.092 117.583 104.255 201.922 102.52 204.516C101.795 205.599 90.8301 206.006 75.5178 206.006Z" fill="#B8D8F5"/>
<path d="M30.6925 205.291C26.808 205.187 22.9522 205.075 19.1801 204.957C14.0473 195.996 9.74523 186.722 6.52417 177.409C2.35362 165.356 -0.00223326 153.24 1.5886e-06 141.655C0.00191718 129.37 2.65532 117.682 8.60705 107.296C13.857 98.1298 21.4322 90.1228 30.6925 83.678V205.291Z" fill="#B8D8F5"/>
<path d="M117.537 212.306H272.295V263.567H122.637C119.384 263.567 119.39 268.595 122.637 268.595H272.295V294.669C272.295 295.385 272.233 296.082 272.103 296.766C271.114 302.209 266.334 306.336 260.588 306.336H117.53C116.688 306.231 116.214 306.129 116.146 306.027C115.352 304.898 116.439 253.11 117.537 212.306Z" fill="#92C6F6"/>
<path d="M238.353 151.535C237.172 156.75 236.046 161.543 235.3 164.686C237.781 164.678 240.259 164.779 242.744 164.704C241.239 160.329 239.804 155.928 238.353 151.535ZM236.31 126.885C235.348 125.447 185.326 125.926 182.921 126.405C180.516 126.885 174.263 158.998 174.263 160.436C174.263 161.632 215.171 161.502 228.951 161.424C232.473 150.977 237.047 127.987 236.31 126.885ZM134.979 206.392C135.435 189.648 135.879 174.56 136.135 165.984H165.878C166.025 161.099 175.334 125.154 177.665 122.83C180.154 120.35 241.863 122.334 243.356 123.822C244.001 124.465 242.416 132.883 240.409 142.237C242.033 147.487 243.751 152.707 245.555 157.898C246.436 160.437 247.342 162.968 248.27 165.491C248.331 165.655 248.397 165.819 248.46 165.984H270.759C270.901 165.984 271.034 165.972 271.165 165.955V206.392H134.979Z" fill="#92C6F6"/>
<path d="M151.148 169.921C161.931 173.479 167.921 174.057 172.365 177.908C176.81 181.759 184.153 205.059 190.143 223.93C196.133 242.801 198.452 268.412 197.099 274.959C195.747 281.507 190.916 312.317 188.79 314.242C186.665 316.167 179.784 321.75 151.148 322.135C122.511 322.52 78.6472 312.317 73.2366 310.583C67.826 308.849 69.5651 301.726 72.4637 294.984C75.3623 288.245 86.5697 274.381 88.6951 269.567C90.8207 264.753 87.5358 254.74 87.5358 254.74C87.5358 254.74 78.1916 260.324 69.7237 257.821C61.2562 255.317 56.4254 243.956 55.8456 229.899C55.2658 215.842 61.4494 175.019 65.5072 171.168C69.5651 167.317 102.369 164.821 103.551 165.587C104.734 166.354 151.148 169.921 151.148 169.921Z" fill="#4A7FDE"/>
<path d="M61.1592 238.408C61.0667 238.408 60.9731 238.386 60.8863 238.339C60.6117 238.188 60.5111 237.844 60.6618 237.571C60.7116 237.48 65.7072 228.467 72.6378 221.416C72.8565 221.193 73.2166 221.189 73.4407 221.408C73.6645 221.626 73.668 221.985 73.4487 222.208C66.6305 229.144 61.7061 238.025 61.6573 238.115C61.5539 238.303 61.3594 238.408 61.1592 238.408Z" fill="#0B5DF1"/>
<path d="M96.4145 115.179C98.279 111.528 101.156 108.326 104.467 106.248C104.848 106.009 105.245 105.773 105.515 105.414C105.774 105.07 105.891 104.644 106.003 104.229C107.427 98.9586 108.625 93.6235 110.84 88.6106C112.644 84.5271 115.379 78.1456 120.258 76.9573C129.038 74.8187 129.336 82.6806 131.02 84.852C132.703 87.0227 142.227 79.1105 153.055 91.5777C163.884 104.045 151.314 113.624 151.314 113.624C151.314 113.624 130.421 131.533 130.232 131.695C130.003 131.891 130.141 133.835 130.108 134.182C129.966 135.646 129.883 137.122 129.842 138.611C129.745 142.018 129.649 145.424 129.553 148.831C120.987 147.033 112.72 143.825 105.189 139.377C101.884 137.424 98.6369 135.152 96.524 131.954C93.1258 126.809 93.6896 120.515 96.4145 115.179Z" fill="#050A30"/>
<path d="M83.5918 94.4637C90.2571 80.2979 103.652 85.1994 107.119 90.9806C105.85 94.5649 104.944 98.4178 104.284 102.071L103.8 103.41C103.419 103.599 103.045 103.803 102.675 104.013C98.4245 107.358 94.9244 111.295 92.2263 116.005C89.1486 121.379 88.2891 126.898 88.4411 133.043C88.4794 134.582 86.0827 134.946 86.0332 133.385C85.8608 127.94 86.423 122.995 88.4781 118.181C88.1301 118.754 87.8 119.342 87.5034 119.956C86.5092 122.013 83.1924 120.644 84.2067 118.581C85.3535 116.249 86.8097 114.14 88.5634 112.285C84.1218 109.515 79.2721 103.645 83.5918 94.4637Z" fill="#050A30"/>
<path d="M103.757 126.24C105.935 134.253 113.695 131.721 114.083 131.592C114.848 137.848 116.2 151.53 114.061 156.317C111.263 162.59 103.551 165.587 103.551 165.587C103.551 165.587 103.511 169.583 103.891 174.801C104.622 184.754 129.094 214.88 137.825 213.363C150.955 211.083 153.477 170.759 153.477 170.759C153.477 170.759 143.779 167.482 142.071 165.273C141.703 164.798 139.823 156.218 139.535 154.924C139.193 153.4 138.908 151.481 138.686 149.57C138.711 149.58 138.748 149.591 138.785 149.596L138.829 149.608C140.304 149.987 148.6 151.602 154.108 145.273C161.991 133.523 154.244 116.127 147.095 103.894C145.113 100.533 140.775 97.4197 136.73 97.8988C132.951 98.3544 131.625 101.548 128.577 103.188C127.023 104.017 125.221 104.189 123.511 104.634C121.803 105.074 120.027 105.932 119.309 107.537C118.913 108.425 118.891 109.443 118.604 110.377C118.205 111.685 117.287 112.799 116.951 114.122C116.736 114.994 116.773 115.905 116.727 116.805C116.672 118.081 116.441 119.334 116.165 120.582C116.04 121.108 115.875 121.687 115.411 121.966C114.467 122.528 114.058 120.881 113.553 120.376C112.855 119.68 112.104 119.042 111.298 118.492C109.778 117.462 107.646 116.463 105.886 117.501C102.552 119.424 103.18 124.099 103.757 126.24Z" fill="#E0C2A2"/>
<path d="M148.27 124.778C148.122 124.179 147.48 123.784 146.876 123.939C146.281 124.091 145.686 124.243 145.091 124.395C144.489 124.55 144.1 125.179 144.249 125.785C144.397 126.384 145.039 126.779 145.644 126.624C146.238 126.472 146.833 126.32 147.428 126.167C148.03 126.013 148.42 125.384 148.27 124.778Z" fill="#EAA459"/>
<path d="M132.069 106.813C130.576 107.409 130.923 107.202 129.461 107.88C127.977 108.568 126.585 109.44 125.13 110.184C123.817 110.855 124.755 112.953 126.078 112.276C127.533 111.532 128.924 110.654 130.41 109.972C131.874 109.3 131.525 109.501 133.018 108.904C134.393 108.356 133.445 106.263 132.069 106.813Z" fill="#050A30"/>
<path d="M145.422 109.97C145.113 109.783 144.903 109.45 144.897 109.076C144.887 108.513 145.343 108.071 145.916 108.086C146.591 108.106 147.306 108.121 147.955 108.307C148.769 108.539 149.568 108.896 150.364 109.186C150.697 109.308 151.034 109.431 151.326 109.633C151.618 109.835 151.866 110.127 151.939 110.475C152.252 111.971 150.201 110.979 149.53 110.79C148.361 110.462 147.17 110.166 145.952 110.127C145.76 110.121 145.578 110.064 145.422 109.97Z" fill="#050A30"/>
<path d="M129.215 117.235C128.266 117.08 127.381 118.101 127.788 118.955C128.249 119.922 130.046 120.433 131.056 120.429C132.578 120.422 134.1 119.871 134.639 119.258C135.584 118.184 135.194 116.72 134.438 117.02C131.293 118.27 129.902 117.346 129.215 117.235Z" fill="#1B1918"/>
<path d="M153.568 116.249C153.91 117.649 151.848 118.309 150.892 118.458C149.845 118.621 148.835 118.53 147.885 117.989C147.658 117.86 147.438 117.675 147.377 117.421C147.24 116.848 147.409 116.325 147.863 115.937C148.786 115.147 149.506 116.086 150.445 116.218C152.265 116.477 153.404 115.576 153.568 116.249Z" fill="#1B1918"/>
<path d="M122.366 141.532C124.305 151.352 132.042 153.589 139.533 154.923C139.196 153.401 138.91 151.48 138.684 149.567C138.709 149.577 138.747 149.589 138.786 149.594L138.596 149.523L138.531 149.508C133.004 148.331 125.823 144.527 122.366 141.532Z" fill="#050A30"/>
<path d="M151.148 130.86C150.237 130.78 149.532 131.868 146.538 132.224C144.277 132.492 143.042 131.657 142.335 131.925C143.618 136.538 150.113 137.399 151.148 130.86Z" fill="white"/>
<path d="M113.405 121.8C115.245 128.942 123.405 156.75 123.478 157.111C123.55 157.472 109.492 165.416 108.695 165.271C107.898 165.127 99.3477 130.971 99.3477 130.177C99.3477 129.382 113.248 121.189 113.405 121.8Z" fill="#0A1E4F"/>
<path d="M86.2219 256.003C86.0671 256.003 85.9129 255.94 85.8005 255.816C85.5904 255.584 85.609 255.226 85.8417 255.017C90.5553 250.78 92.3094 243.566 92.8448 240.661C92.9016 240.353 93.1963 240.15 93.506 240.206C93.8144 240.263 94.0181 240.558 93.9616 240.865C93.4051 243.884 91.5741 251.388 86.6025 255.857C86.4936 255.955 86.3576 256.003 86.2219 256.003Z" fill="#0B5DF1"/>
<path d="M78.84 210.679C78.5419 210.679 78.2922 210.448 78.274 210.147C78.2625 209.957 77.0707 191.027 72.5805 184.735C72.3992 184.48 72.4586 184.127 72.7143 183.946C72.9694 183.765 73.3238 183.824 73.5058 184.079C78.184 190.635 79.3592 209.289 79.4071 210.08C79.4259 210.391 79.1874 210.659 78.8745 210.678L78.84 210.679Z" fill="#0B5DF1"/>
<path d="M82.319 179.713C84.203 167.798 86.8114 149.313 87.0288 147.941C87.2462 146.568 98.7921 136.026 99.7582 135.159C100.724 134.293 109.603 128.102 110.76 128.841C112.173 129.744 111.123 132.83 109.021 134.618C107.909 135.564 106.28 136.748 106.28 136.748C106.28 136.748 108.586 137.253 109.673 137.578C110.76 137.903 113.586 140.431 114.094 141.225C114.601 142.019 114.557 143.487 114.557 143.487C114.557 143.487 117.065 145.16 117.717 146.316C118.369 147.471 117.028 149.288 115.47 148.951C114.337 148.706 112.826 147.724 111.775 147.435C110.724 147.146 104.565 147.399 104.311 147.507C104.058 147.616 99.1302 153.104 98.9853 153.32C98.8403 153.537 99.2027 154.801 99.5286 154.801C99.8546 154.801 105.543 154.945 107.717 155.414C109.891 155.884 113.442 158.916 113.876 160.325C114.311 161.733 112.499 162.888 111.34 162.383C110.181 161.877 107.971 160.036 107.463 159.819C106.956 159.602 103.442 160.144 102.826 160.144C102.21 160.144 100.797 163.033 100.688 163.646C100.579 164.26 100.386 171.517 99.7582 172.925C99.1302 174.333 97.4272 174.983 96.9199 175.525C96.4129 176.066 96.2316 214.013 95.0724 227.445C93.9128 240.875 93.1884 246.075 87.5361 250.841C81.8842 255.606 68.2612 253.873 67.6814 240.009C67.1019 226.145 71.5943 209.681 74.3479 203.759C77.1016 197.838 82.319 179.713 82.319 179.713Z" fill="#E0C2A2"/>
<path d="M97.2942 146.231C97.1512 146.231 97.0081 146.178 96.8961 146.073C96.6637 145.854 96.6544 145.489 96.8741 145.257C98.6223 143.418 101.586 141.869 103.442 141.433C104.326 141.226 107.062 141.253 108.383 141.423C108.588 141.449 108.819 141.459 109.087 141.47C110.105 141.51 111.645 141.572 114.745 142.654C115.047 142.759 115.206 143.088 115.101 143.389C114.995 143.69 114.664 143.848 114.363 143.743C111.425 142.718 109.99 142.661 109.04 142.622C108.745 142.611 108.49 142.6 108.234 142.567C106.866 142.391 104.33 142.411 103.707 142.557C102.054 142.944 99.2928 144.39 97.7143 146.051C97.6007 146.171 97.4474 146.231 97.2942 146.231Z" fill="#E59D4F"/>
<path d="M95.724 142.401C95.5704 142.401 95.4169 142.34 95.3032 142.22C95.0836 141.988 95.0938 141.623 95.3268 141.405C95.3917 141.343 96.9407 139.891 98.5239 138.864C100.058 137.869 102.029 136.772 106.026 136.355C106.34 136.325 106.629 136.551 106.662 136.868C106.695 137.185 106.465 137.469 106.146 137.502C102.405 137.893 100.642 138.867 99.1558 139.831C97.6613 140.801 96.1365 142.229 96.1215 142.243C96.0097 142.348 95.8667 142.401 95.724 142.401Z" fill="#E59D4F"/>
<path d="M95.728 155.375C95.5176 155.375 95.3149 155.262 95.2121 155.064C95.0665 154.783 95.1728 154.438 95.4538 154.29C95.5125 154.26 96.9179 153.541 99.8085 153.792C100.127 153.82 100.362 154.1 100.335 154.417C100.307 154.735 100.029 154.971 99.7073 154.942C97.1969 154.724 96.0019 155.307 95.9901 155.313C95.9058 155.356 95.8161 155.375 95.728 155.375Z" fill="#E59D4F"/>
<path d="M187.651 315.747C187.369 315.747 187.124 315.537 187.088 315.25C187.079 315.171 186.061 307.249 182.444 293.59C181.17 288.777 179.454 284.043 177.795 279.464C174.714 270.964 171.804 262.935 172.574 256.407C172.827 254.27 173.303 251.703 173.856 248.73C175.839 238.049 178.837 221.906 175.669 202.067C175.62 201.758 175.831 201.468 176.141 201.419C176.449 201.369 176.741 201.581 176.791 201.889C179.989 221.92 176.969 238.178 174.972 248.936C174.423 251.889 173.95 254.439 173.702 256.539C172.963 262.802 175.828 270.708 178.862 279.079C180.53 283.683 182.255 288.44 183.542 293.301C187.181 307.042 188.205 315.031 188.215 315.11C188.253 315.419 188.033 315.702 187.722 315.74L187.651 315.747Z" fill="#0B5DF1"/>
<path d="M655.288 2.69562L554.962 298.503H220.454L320.778 2.69562H655.288Z" fill="#A1C6EA"/>
<path d="M535.104 242.714C535.669 239.898 536.799 126.724 536.234 125.035C535.669 123.346 391.023 123.346 391.023 123.346C391.023 123.346 390.458 119.404 391.023 116.589C391.588 113.774 535.669 116.589 535.669 116.589C535.669 116.589 537.364 103.076 534.538 99.1342C531.713 95.1929 328.872 98.0083 324.351 99.6974C319.83 101.386 322.655 262.421 322.09 264.11C321.525 265.799 276.323 263.546 275.193 262.984C274.063 262.421 275.758 232.015 274.628 230.89C274.204 230.467 266.616 230.118 257.259 229.887C258.175 227.398 258.892 224.848 259.434 222.235C259.553 221.678 259.276 220.974 258.649 220.856C257.745 220.681 256.836 220.523 255.932 220.366C256.7 219.262 257.446 218.147 258.163 217.004C259.061 215.569 260.847 213.333 259.407 211.656C257.824 209.809 255.146 211.571 252.977 213.682C254.491 208.401 256.547 200.591 251.841 200.332C248.948 200.169 247.055 204.155 246.089 206.267C245.484 207.607 245.01 208.992 244.626 210.399C244.281 207.466 243.863 204.55 243.349 201.644C242.941 199.353 242.456 191.639 238.094 193.204C236.862 193.649 236.5 194.797 236.405 195.986C236.19 198.744 236.568 201.667 236.913 204.403C237.523 209.257 238.698 214.009 240.416 218.587C240.004 218.564 239.591 218.53 239.179 218.508C238.156 218.463 236.681 218.086 235.766 218.75C234.189 219.893 235.303 223.44 235.563 224.972C235.845 226.593 236.274 228.153 236.941 229.583C228.161 229.532 221.183 229.606 220.68 229.831L220.454 231.126V287.351C220.454 289.33 220.945 291.192 221.821 292.827C223.788 296.508 227.68 299.018 232.161 299.018H543.261C547.743 299.018 551.629 296.508 553.595 292.827C554.47 291.192 554.962 289.33 554.962 287.351V244.78C553.631 244.825 534.555 245.433 535.104 242.714Z" fill="#70AFEC"/>
<path d="M441.562 185.948C436.674 196.864 430.062 206.923 421.251 214.723C412.979 222.051 402.574 226.412 391.428 226.169C378.616 225.895 366.583 219.811 358.71 209.746C351.526 200.564 345.732 190.899 344.962 179.373C349.643 176.957 357.094 173.211 361.634 171.594C362.33 171.344 363.007 171.102 363.665 170.873C364.447 170.604 365.204 170.343 365.932 170.087C370.098 168.633 373.227 167.494 374.095 166.557C374.134 166.518 374.172 166.472 374.197 166.433C374.258 166.348 374.296 166.269 374.319 166.184C374.325 166.151 374.332 166.132 374.344 166.106C375.494 165.759 376.649 165.411 377.815 165.084C382.84 163.61 387.926 162.275 393.04 161.194C395.879 160.592 398.743 160.127 401.603 159.727H401.629C402.647 160.349 410.52 164.874 414.773 167.952L414.75 167.985C414.291 168.889 414.179 169.079 414.179 169.079C414.179 169.079 414.568 169.308 415.086 169.609C416.059 170.185 417.471 171.024 417.662 171.122C418.518 171.587 420.967 173.135 421.825 173.692C427.978 177.673 434.408 181.069 441.562 185.948Z" fill="white"/>
<path d="M364.785 190.332C364.769 190.758 365.006 191.149 365.389 191.333C365.539 191.411 365.695 191.44 365.852 191.44C366.11 191.44 366.359 191.355 366.551 191.184L379.676 177.857C380.126 177.474 380.177 176.799 379.784 176.359C379.398 175.912 378.721 175.862 378.281 176.253L367.049 187.932C367.285 183.515 367.177 174.304 367.905 169.433C367.177 169.688 366.42 169.952 365.638 170.221C364.741 177.188 364.811 189.764 364.785 190.332Z" fill="#E4E4E3"/>
<path d="M379.242 227.635C378.734 216.939 379.51 207.852 379.526 207.058L386.342 181.111L398.883 192.877C399.113 193.092 399.425 193.198 399.735 193.16C400.048 193.126 400.329 192.955 400.505 192.695C405.14 185.809 409.406 178.86 412.831 173.276C413.671 171.907 414.453 170.634 415.165 169.485C415.475 168.984 415.318 168.327 414.817 168.018C414.313 167.71 413.658 167.865 413.345 168.365C412.633 169.518 411.851 170.793 411.008 172.164C407.765 177.448 403.771 183.959 399.429 190.463L386.348 178.189C386.058 177.92 385.643 177.829 385.272 177.956C384.899 178.082 384.624 178.403 384.56 178.791L377.406 206.786C377.396 206.834 377.393 206.884 377.39 206.933C377.387 207.068 376.572 216.101 377.074 227.056C377.789 227.267 378.514 227.461 379.242 227.635Z" fill="#E4E4E3"/>
<path d="M332.476 283.495C331.924 285.703 330.886 288.236 329.782 291.08C328.789 293.638 327.741 296.171 326.934 299.018H448.42C448.363 298.388 448.27 297.79 448.136 297.249C446.163 289.391 441.562 277.603 444.848 268.434C448.136 259.266 454.707 237.656 454.707 230.452C454.707 223.249 452.079 194.435 452.079 194.435C452.079 194.435 449.672 188.866 437.383 182.305C425.095 175.743 420.536 172.824 420.536 172.824C420.536 172.824 395.563 213.426 376.506 212.116C357.449 210.806 359.834 171.685 359.834 171.685C359.834 171.685 341.02 180.028 336.419 185.267C331.818 190.506 324.59 221.939 324.59 221.939C324.59 221.939 329.935 254.63 331.892 272.514C332.511 278.106 332.792 282.251 332.476 283.495Z" fill="#6A8EB5"/>
<path d="M332.476 283.495C331.952 285.598 327.448 295.607 326.062 299.015H386.62L347.284 268.401L332.805 268.107L331.892 272.514C332.511 278.106 332.792 282.251 332.476 283.495Z" fill="#3B688F"/>
<path d="M346.278 246.169L328.533 238.311L319.99 273.019C319.99 273.019 328.275 271.709 330.905 271.054C333.533 270.399 346.932 276.948 346.932 276.948L346.278 246.169Z" fill="#1A3A5A"/>
<path d="M350.438 292.299C350.878 292.553 351.332 292.808 351.785 293.05C356.223 295.468 361.009 297.51 364.955 299.018H409.901C417.298 290.565 429.769 275.025 440.17 260.517C443.002 256.562 445.684 252.685 448.069 249.05C453.551 240.681 457.446 233.596 457.992 229.797C459.47 219.503 456.893 203.708 451.919 194.762C451.67 194.31 451.408 193.872 451.143 193.453C449.659 191.115 447.983 189.379 446.163 188.541C438.133 184.848 413.247 211.265 410.303 214.428C410.118 214.631 410.019 214.736 410.019 214.736C410.019 214.736 406.801 219.844 403.397 225.724C402.462 227.328 401.523 228.992 400.629 230.629C397.861 235.671 395.563 240.413 395.563 242.24C395.563 246.824 394.905 250.098 391.62 250.753C388.335 251.408 385.707 255.337 385.707 259.921L349.384 247.256L346.278 246.169C346.278 246.169 333.134 273.673 339.704 283.495C341.846 286.699 345.882 289.696 350.438 292.299Z" fill="#6A8EB5"/>
<path d="M451.919 194.762C447.13 194.618 442.274 195.535 437.785 197.244C428.999 200.584 421.618 206.74 415.022 213.262C414.482 213.799 413.649 212.968 414.185 212.431C421.033 205.561 428.734 199.215 437.954 195.823C442.153 194.278 446.67 193.427 451.143 193.453C451.408 193.872 451.67 194.31 451.919 194.762Z" fill="#3B688F"/>
<path d="M448.069 249.05C445.684 252.685 443.002 256.562 440.17 260.517C436.266 261.31 430.452 261.905 428.75 258.939C426.12 254.355 423.492 234.709 420.865 234.054C418.234 233.399 396.549 244.532 396.549 244.532C396.549 244.532 398.631 235.783 399.892 234.591C399.892 234.591 420.207 223.576 426.12 226.851C432.036 230.125 433.348 248.461 436.633 250.425C438.52 251.552 443.858 250.308 448.069 249.05Z" fill="white"/>
<path d="M410.843 215.698C409.067 219.896 407.168 224.022 405.051 228.062C402.957 232.07 400.125 235.862 398.302 239.98C396.843 243.294 398.257 247.014 395.805 250.007C393.414 252.927 387.782 253.995 387.112 257.983C392.462 259.443 397.711 261.244 402.293 264.374C403.627 265.285 402.424 267.419 401.003 266.562C393.111 261.787 384.331 260.131 375.561 257.642C369.52 255.933 363.528 253.851 357.736 251.323C352.992 258.788 352.178 268.572 351.667 277.158C351.351 282.455 351.389 287.765 351.785 293.05C351.332 292.808 350.875 292.553 350.438 292.299C350.074 287.046 350.074 281.781 350.431 276.528C351.009 267.956 351.894 258.278 356.66 250.851C354.24 249.764 351.862 248.612 349.544 247.354C349.483 247.322 349.432 247.289 349.384 247.256C348.321 246.483 349.445 244.794 350.706 245.377C359.728 249.555 368.837 253.209 378.469 255.749C380.474 256.28 382.511 256.778 384.548 257.301C385.056 254.545 387.507 252.646 389.924 251.159C392.29 249.705 394.464 248.566 394.879 245.547C395.141 243.681 394.854 241.86 395.444 240.027C396.508 236.752 398.723 233.661 400.629 230.629C401.102 229.87 401.555 229.116 401.97 228.37C402.455 227.492 402.928 226.608 403.397 225.724C405.294 222.142 407.069 218.501 408.745 214.814C409.035 214.179 409.77 214.146 410.303 214.428C410.756 214.67 411.072 215.155 410.843 215.698Z" fill="#3B688F"/>
<path d="M457.155 234.392C448.909 248.5 437.693 261.011 429.181 274.932C426.953 278.57 424.938 282.334 421.982 285.462C419.265 288.335 416.069 290.721 413.419 293.66C412.778 294.373 412.136 295.159 411.484 295.986C411.028 296.568 411.133 297.411 411.721 297.863L411.743 297.879C412.315 298.321 413.132 298.226 413.595 297.669C415.364 295.534 417.199 293.485 419.313 291.564C422.675 288.506 425.714 285.471 428.179 281.628C433.121 273.908 438.006 266.379 443.609 259.098C449.263 251.751 455.045 244.431 459.566 236.315C460.373 234.869 457.992 232.961 457.155 234.392Z" fill="#3B688F"/>
<path d="M313.889 178.6C313.889 178.6 343.638 185.176 345.601 201.72C345.988 204.971 334.919 200.95 328.093 194.835C321.27 188.72 313.889 178.6 313.889 178.6Z" fill="#3B688F"/>
<path d="M322.738 182.396C324.865 170.521 327.85 152.092 328.096 150.725C328.342 149.357 340.097 139.05 341.08 138.203C342.063 137.356 351.067 131.345 352.21 132.108C353.605 133.039 352.491 136.104 350.355 137.849C349.221 138.772 347.571 139.923 347.571 139.923C347.571 139.923 349.866 140.475 350.945 140.822C352.025 141.168 354.799 143.752 355.291 144.557C355.782 145.361 355.709 146.827 355.709 146.827C355.709 146.827 358.18 148.551 358.809 149.72C359.438 150.888 358.062 152.678 356.51 152.309C355.38 152.042 353.889 151.029 352.845 150.719C351.801 150.409 345.639 150.537 345.384 150.64C345.125 150.743 340.087 156.131 339.94 156.344C339.79 156.558 340.126 157.829 340.451 157.836C340.78 157.842 346.463 158.101 348.628 158.614C350.789 159.128 354.279 162.232 354.684 163.648C355.089 165.065 353.257 166.183 352.108 165.655C350.958 165.126 348.787 163.24 348.283 163.013C347.782 162.786 344.257 163.257 343.641 163.245C343.024 163.232 341.553 166.091 341.431 166.703C341.31 167.314 340.972 174.566 340.314 175.961C339.656 177.356 337.942 177.972 337.421 178.503C336.904 179.034 335.953 216.969 334.519 230.374C333.089 243.779 332.259 248.963 326.509 253.614C320.762 258.264 307.177 256.256 306.881 242.383C306.58 228.51 311.408 212.14 314.281 206.276C317.154 200.411 322.738 182.396 322.738 182.396Z" fill="#E0C2A2"/>
<path d="M338.405 149.223C338.258 149.223 338.111 149.167 337.999 149.056C337.769 148.833 337.766 148.468 337.993 148.241C339.777 146.436 342.772 144.948 344.637 144.55C345.524 144.361 348.257 144.443 349.576 144.64C349.783 144.67 350.013 144.684 350.281 144.7C351.297 144.762 352.835 144.855 355.913 145.998C356.213 146.11 356.363 146.442 356.255 146.74C356.143 147.039 355.808 147.191 355.508 147.079C352.593 145.996 351.159 145.909 350.211 145.852C349.914 145.834 349.662 145.819 349.406 145.78C348.04 145.577 345.505 145.545 344.879 145.679C343.219 146.032 340.429 147.422 338.816 149.051C338.705 149.165 338.555 149.223 338.405 149.223Z" fill="#E59D4F"/>
<path d="M336.914 145.362C336.754 145.362 336.598 145.297 336.483 145.172C336.269 144.936 336.288 144.571 336.524 144.357C336.591 144.297 338.169 142.877 339.771 141.882C341.326 140.918 343.318 139.861 347.325 139.525C347.651 139.501 347.922 139.734 347.951 140.051C347.976 140.368 347.74 140.647 347.421 140.674C343.673 140.989 341.891 141.928 340.384 142.861C338.871 143.801 337.316 145.198 337.3 145.212C337.192 145.312 337.051 145.362 336.914 145.362Z" fill="#E59D4F"/>
<path d="M336.652 158.334C336.438 158.334 336.234 158.216 336.132 158.012C335.991 157.728 336.106 157.385 336.39 157.243C336.448 157.214 337.868 156.524 340.755 156.833C341.071 156.868 341.301 157.152 341.265 157.469C341.233 157.786 340.953 158.013 340.627 157.981C338.124 157.709 336.917 158.271 336.904 158.276C336.824 158.315 336.738 158.334 336.652 158.334Z" fill="#E59D4F"/>
<path d="M345.601 201.72C345.601 201.72 344.768 207.479 343.637 215.433C343.58 215.855 343.516 216.286 343.452 216.716C341.189 232.644 337.891 256.189 337.447 261.016C336.84 267.634 339.851 274.558 331.419 281.074C328.325 283.464 323.757 284.946 319.977 285.159C314.731 285.452 309.396 284.227 304.85 281.59C300.968 279.34 297.641 276.07 295.614 272.079C293.577 268.089 292.887 263.382 293.992 259.044C294.828 255.784 296.632 252.753 296.814 249.395C297.053 245.103 294.605 240.813 295.645 236.64C296.284 234.046 298.174 231.984 299.7 229.793C302.289 226.077 303.621 222.032 304.524 217.65C306.293 209.072 308.365 200.539 310.498 192.029C310.632 191.5 310.766 190.972 310.9 190.449C311.938 186.302 312.998 182.165 314.032 178.026L345.601 201.72Z" fill="#6A8EB5"/>
<path d="M356.775 121.004C358.471 128.181 365.348 156.419 365.415 156.781C365.478 157.144 352.277 162.743 351.485 162.583C350.69 162.422 341.294 122.767 341.31 121.973C341.329 121.179 356.632 120.389 356.775 121.004Z" fill="#0A1E4F"/>
<path d="M310.9 190.449C318.76 202.018 330.401 210.871 343.637 215.433C343.58 215.855 343.516 216.286 343.452 216.716C330.209 212.222 318.524 203.469 310.498 192.029L310.9 190.449Z" fill="#3B688F"/>
<path d="M344.222 206.699C342.622 217.197 341.441 224.259 340.256 234.811C340.077 236.398 342.427 236.567 342.702 235.041C344.579 224.591 345.036 217.427 346.501 206.913C346.705 205.452 344.442 205.255 344.222 206.699Z" fill="#3B688F"/>
<path d="M350.814 117.329C350.814 117.329 339.634 111.743 339.065 96.2756C338.497 80.8079 352.053 86.2223 353.1 86.6877C353.815 83.2096 357.091 77.6865 366.65 77.8742C378.565 78.108 388.095 89.0869 388.095 89.0869C388.095 89.0869 401.912 88.2394 402.976 101.797C404.326 119.024 399.786 133.361 393.197 139.716C389.854 142.94 350.814 117.329 350.814 117.329Z" fill="#1A3A5A"/>
<path d="M401.619 159.713C398.749 163.528 390.908 172.713 385.049 178.718L377.163 206.877C377.163 206.877 375.19 172.825 374.22 167.226C374.181 167.005 374.134 166.779 374.092 166.551C374.127 166.509 374.162 166.467 374.191 166.431C374.255 166.346 374.296 166.26 374.319 166.182C374.648 164.868 374.52 162.34 374.29 160.004C374.14 158.477 373.942 157.028 373.798 156.049C373.683 155.296 392.651 121.839 392.651 121.839C392.651 121.839 396.338 151.944 401.619 159.713Z" fill="#E0C2A2"/>
<path d="M374.191 166.431C374.255 166.346 374.296 166.26 374.318 166.182C374.647 164.868 374.52 162.34 374.29 160.004C374.14 158.477 373.361 154.159 373.22 153.178C373.22 153.178 375.254 151.525 375.053 150.375L375.046 150.311C379.586 144.012 384.487 137.202 387.807 136.222C388.398 136.045 388.947 136.045 389.439 136.265C390.323 136.655 390.914 137.138 391.195 139.132C393.675 156.715 378.36 165.735 374.191 166.431Z" fill="#1B1918"/>
<path d="M387.032 94.0479C387.105 94.0479 387.179 94.0399 387.252 94.0225C387.757 93.9025 388.066 93.3979 387.948 92.8943C387.942 92.8749 387.431 90.5867 388.635 88.9781C389.394 87.9632 390.716 87.3905 392.561 87.2747C393.851 87.198 395.077 87.3584 396.214 87.7647C396.702 87.9371 397.239 87.6855 397.414 87.1987C397.59 86.7122 397.334 86.1758 396.846 86.0015C395.467 85.5102 393.982 85.3057 392.447 85.4065C390.014 85.558 388.219 86.3887 387.115 87.8738C385.394 90.1916 386.09 93.2019 386.119 93.3292C386.221 93.7587 386.607 94.0479 387.032 94.0479Z" fill="#1A3A5A"/>
<path d="M393.816 130.766C391.195 137.218 391.195 144.238 385.898 149.553C383.657 151.804 380.48 153.318 376.812 154.474C372.805 155.731 364.083 156.956 360.214 153.931C357.717 151.985 355.782 147.92 354.291 143.287C351.402 134.346 350.166 123.3 349.678 121.309C348.468 116.351 350.473 105.055 350.473 105.055C356.089 110.352 372.63 110.313 379.752 107.876C380.873 110.434 381.962 112.515 382.923 114.161L382.929 114.174C385.049 117.799 386.559 119.318 386.559 119.318C386.559 119.318 386.891 118.731 387.463 117.939C389.171 115.572 393.021 111.353 396.6 115.355C403.611 123.191 393.816 130.766 393.816 130.766Z" fill="#E0C2A2"/>
<path d="M371.181 121.748C371.458 121.344 371.822 121.083 372.279 121.05C372.33 121.038 372.381 121.029 372.429 121.022L372.483 121.006L372.537 121.008C374.102 120.87 374.919 122.885 374.402 124.192C374.36 124.491 374.261 124.773 374.041 124.982C373.824 125.189 373.534 125.313 373.23 125.355C373.208 125.372 373.189 125.391 373.157 125.403C372.467 125.674 371.889 125.36 371.5 124.801C370.686 124.074 370.526 122.695 371.181 121.748Z" fill="#1B1918"/>
<path d="M351.817 124.855C352.293 123.894 353.49 123.525 354.419 124.076C354.499 124.125 354.575 124.183 354.649 124.247C354.892 124.445 355.061 124.724 355.109 125.054C355.118 125.092 355.121 125.13 355.125 125.169L355.131 125.204C355.15 125.79 355.157 126.388 354.904 126.933C354.413 127.983 353.059 128.076 352.242 127.366C351.53 126.748 351.412 125.676 351.817 124.855Z" fill="#1B1918"/>
<path d="M362.085 136.4C362.065 135.865 362.506 135.386 363.049 135.372C363.579 135.359 364.112 135.346 364.642 135.333C365.181 135.319 365.654 135.752 365.673 136.292C365.692 136.826 365.252 137.306 364.712 137.319C364.179 137.332 363.649 137.346 363.116 137.359C362.576 137.372 362.104 136.94 362.085 136.4Z" fill="#EAA459"/>
<path d="M367.228 114.161C368.496 114.739 369.84 115.113 371.075 115.761C372.33 116.417 373.498 117.229 374.728 117.933C375.835 118.567 374.935 120.343 373.818 119.703C372.592 119 371.426 118.182 370.168 117.531C368.93 116.888 367.586 116.509 366.318 115.931C365.153 115.4 366.06 113.629 367.228 114.161Z" fill="#1A3A5A"/>
<path d="M348.477 116.636C348.972 115.495 349.802 114.845 350.795 114.147C351.836 113.414 353.107 114.949 352.053 115.689C351.399 116.151 350.68 116.554 350.352 117.318C349.844 118.489 347.97 117.812 348.477 116.636Z" fill="#1A3A5A"/>
<path d="M391.195 140.409C390.965 142.91 389.468 147.428 386.712 150.619C384.305 152.693 380.135 155.846 376.467 157.001C372.457 158.258 365.58 159.553 360.456 155.086C358.071 153.006 355.782 147.92 354.291 143.287C356.063 141.506 360.411 137.856 366.222 137.856C372.655 137.856 380.547 142.361 384.79 138.494C388.171 135.412 384.535 120.217 382.929 114.174L382.923 114.161C382.53 112.719 382.262 111.807 382.236 111.704L387.354 117.435C387.354 117.435 387.392 117.614 387.463 117.939C388.056 120.824 391.658 135.387 391.195 140.409Z" fill="#1A3A5A"/>
</g>
<path d="M372.152 142.15C371.014 142.057 370.133 143.326 366.393 143.741C363.568 144.054 362.024 143.08 361.141 143.393C362.744 148.774 370.859 149.778 372.152 142.15Z" fill="white"/>
</svg>
