<svg width="52" height="52" viewBox="0 0 52 52" fill="none" xmlns="http://www.w3.org/2000/svg">
<g clip-path="url(#clip0_1_1862)">
<path fill-rule="evenodd" clip-rule="evenodd" d="M26 0C40.3571 0 52 11.6429 52 26C52 40.3571 40.3571 52 26 52C11.6429 52 0 40.3571 0 26C0 11.6429 11.6429 0 26 0ZM38.3584 29.4574H38.3652V41.159C38.3652 41.6192 37.9897 41.9947 37.5295 41.9947H29.9704C29.5102 41.9947 29.1347 41.6192 29.1347 41.159V34.7966C29.1347 34.3364 28.7595 33.9609 28.2993 33.9609H23.7018C23.2415 33.9609 22.8661 34.3364 22.8661 34.7966V41.159C22.8661 41.6192 22.4908 41.9947 22.0306 41.9947H14.4716C14.0113 41.9947 13.6359 41.6192 13.6359 41.159V29.4574H13.6353L19.7993 23.1887L25.3676 17.5263C25.5308 17.3604 25.731 17.2763 25.9638 17.2763C26.1961 17.2763 26.3963 17.3604 26.5595 17.5263L32.1278 23.1887L38.3584 29.4574ZM27.1954 10.505L35.8245 19.2805L42.8494 26.4248C43.3316 26.9153 43.4648 27.6083 43.1989 28.2428C42.9328 28.8772 42.3454 29.268 41.6573 29.268H41.6156C41.1502 29.268 40.7498 29.1003 40.4237 28.7683L33.4325 21.6584L27.142 15.2608C26.8156 14.9291 26.4154 14.761 25.95 14.761C25.4847 14.761 25.0845 14.9291 24.7581 15.2608L18.467 21.6584C16.137 24.0283 13.8062 26.3986 11.4762 28.7683C11.4533 28.7918 11.4306 28.8121 11.4083 28.8293C11.1174 29.0858 10.7355 29.2414 10.3173 29.2414C9.40586 29.2414 8.66639 28.5021 8.66639 27.5903C8.66639 27.0869 8.892 26.6361 9.24781 26.3331L16.1824 19.2805L24.8116 10.505C25.1379 10.1732 25.5381 10.0053 26.0037 10.0053C26.4688 10.0053 26.8693 10.1734 27.1954 10.505Z" fill="#1434CB"/>
</g>
<defs>
<clipPath id="clip0_1_1862">
<rect width="52" height="52" fill="white"/>
</clipPath>
</defs>
</svg>
