<svg width="32" height="32" viewBox="0 0 32 32" fill="none" xmlns="http://www.w3.org/2000/svg">
<path d="M30 15C29.7348 15 29.4804 14.8946 29.2929 14.7071C29.1054 14.5196 29 14.2652 29 14C28.9966 11.0837 27.8365 8.28778 25.7744 6.22563C23.7122 4.16347 20.9163 3.00344 18 3C17.7348 3 17.4804 2.89464 17.2929 2.70711C17.1054 2.51957 17 2.26522 17 2C17 1.73478 17.1054 1.48043 17.2929 1.29289C17.4804 1.10536 17.7348 1 18 1C21.4466 1.00397 24.7509 2.37488 27.188 4.812C29.6251 7.24911 30.996 10.5534 31 14C31 14.2652 30.8946 14.5196 30.7071 14.7071C30.5196 14.8946 30.2652 15 30 15Z" fill="#1434CB"/>
<path d="M24 15C23.7348 15 23.4804 14.8946 23.2929 14.7071C23.1054 14.5196 23 14.2652 23 14C22.9984 12.6744 22.4711 11.4036 21.5338 10.4662C20.5964 9.52888 19.3256 9.00159 18 9C17.7348 9 17.4804 8.89464 17.2929 8.70711C17.1054 8.51957 17 8.26522 17 8C17 7.73478 17.1054 7.48043 17.2929 7.29289C17.4804 7.10536 17.7348 7 18 7C19.8559 7.00212 21.6351 7.7403 22.9474 9.05259C24.2597 10.3649 24.9979 12.1441 25 14C25 14.2652 24.8946 14.5196 24.7071 14.7071C24.5196 14.8946 24.2652 15 24 15Z" fill="#1434CB"/>
<path d="M21.0281 19.528L18.5831 22.585C14.7965 20.3592 11.6409 17.2036 9.41513 13.417L12.4721 10.972C12.8301 10.6851 13.083 10.2878 13.1916 9.84214C13.3001 9.39643 13.2581 8.92734 13.0721 8.508L10.2861 2.235C10.0866 1.78483 9.73366 1.42022 9.29018 1.20627C8.84671 0.992318 8.34163 0.942958 7.86513 1.067L2.56513 2.443C2.06959 2.57131 1.63844 2.87717 1.35361 3.30249C1.06877 3.7278 0.950096 4.24293 1.02013 4.75C1.95087 11.3774 5.0139 17.5217 9.74617 22.254C14.4785 26.9862 20.6227 30.0493 27.2501 30.98C27.7566 31.0499 28.2712 30.9315 28.6962 30.6473C29.1212 30.3631 29.4272 29.9328 29.5561 29.438L30.9321 24.138C31.0555 23.6619 31.0059 23.1575 30.7922 22.7145C30.5785 22.2715 30.2146 21.9188 29.7651 21.719L23.4921 18.93C23.073 18.7436 22.604 18.7012 22.1583 18.8094C21.7126 18.9176 21.3152 19.1702 21.0281 19.528Z" fill="#1434CB"/>
</svg>
