<svg width="16" height="16" viewBox="0 0 16 16" fill="none"
     xmlns="http://www.w3.org/2000/svg">
    <path d="M15.7874 14.7553L12.7057 11.6736C13.8639 10.2508 14.4314 8.43748 14.291 6.60823C14.1505 4.77898 13.3129 3.07354 11.9511 1.84418C10.5893 0.614832 8.80728 -0.0445158 6.97324 0.00233626C5.13921 0.0491883 3.39322 0.798662 2.09594 2.09594C0.798662 3.39322 0.0491883 5.13921 0.00233626 6.97324C-0.0445158 8.80728 0.614832 10.5893 1.84418 11.9511C3.07354 13.3129 4.77898 14.1505 6.60823 14.291C8.43748 14.4314 10.2508 13.8639 11.6736 12.7057L14.7553 15.7874C14.8931 15.9225 15.0784 15.9982 15.2714 15.9982C15.4643 15.9982 15.6496 15.9225 15.7874 15.7874C15.9236 15.6502 16 15.4647 16 15.2714C16 15.078 15.9236 14.8926 15.7874 14.7553ZM1.46178 7.16005C1.46178 6.03304 1.79598 4.93134 2.42211 3.99426C3.04824 3.05718 3.93819 2.32682 4.97942 1.89553C6.02064 1.46424 7.16637 1.3514 8.27173 1.57127C9.37709 1.79114 10.3924 2.33385 11.1893 3.13077C11.9863 3.92768 12.529 4.94302 12.7488 6.04838C12.9687 7.15373 12.8559 8.29946 12.4246 9.34069C11.9933 10.3819 11.2629 11.2719 10.3258 11.898C9.38877 12.5241 8.28707 12.8583 7.16005 12.8583C5.64953 12.8559 4.20157 12.2548 3.13346 11.1866C2.06535 10.1185 1.46422 8.67058 1.46178 7.16005Z"
          fill="black"/>
</svg>