<svg width="81" height="56" viewBox="0 0 81 56" fill="none" xmlns="http://www.w3.org/2000/svg">
<path d="M64.3609 35.4883C59.6343 35.4883 55.7891 40.0369 55.7891 45.6281C55.7891 51.2193 59.6343 55.7678 64.3609 55.7678C69.0882 55.7678 72.9327 51.2193 72.9327 45.6281C72.9327 40.0369 69.0874 35.4883 64.3609 35.4883ZM64.3609 50.698C61.9972 50.698 60.075 48.4241 60.075 45.6281C60.075 42.8321 61.9972 40.5582 64.3609 40.5582C66.7245 40.5582 68.6468 42.8321 68.6468 45.6281C68.6468 48.4242 66.7245 50.698 64.3609 50.698Z" fill="#1434CB"/>
<path d="M35.0679 35.4883C30.3413 35.4883 26.4961 40.0369 26.4961 45.6281C26.4961 51.2193 30.3413 55.7678 35.0679 55.7678C39.7945 55.7678 43.6397 51.2193 43.6397 45.6281C43.6397 40.0369 39.7945 35.4883 35.0679 35.4883ZM35.0679 50.698C32.7043 50.698 30.782 48.4241 30.782 45.6281C30.782 42.8321 32.7043 40.5582 35.0679 40.5582C37.4309 40.5582 39.3538 42.8321 39.3538 45.6281C39.3538 48.4242 37.4315 50.698 35.0679 50.698Z" fill="#1434CB"/>
<path d="M70.131 6.46627C69.7667 5.61031 69.0259 5.07031 68.2159 5.07031H56.9297V10.1402H66.8943L72.7296 23.8694L76.5598 21.5913L70.131 6.46627Z" fill="#1434CB"/>
<path d="M57.9259 43.1797H41.7109V48.2496H57.9259V43.1797Z" fill="#1434CB"/>
<path d="M28.642 43.1777H21.2132C20.0295 43.1777 19.0703 44.3126 19.0703 45.7126C19.0703 47.1128 20.0297 48.2475 21.2132 48.2475H28.6421C29.8258 48.2475 30.785 47.1126 30.785 45.7126C30.785 44.3124 29.8256 43.1777 28.642 43.1777Z" fill="#1434CB"/>
<path d="M80.5513 27.6815L76.3362 21.2596C75.9312 20.6411 75.3062 20.2794 74.644 20.2794H59.0719V2.53487C59.0719 1.13467 58.1125 0 56.929 0H21.2132C20.0295 0 19.0703 1.13483 19.0703 2.53487C19.0703 3.9349 20.0297 5.06973 21.2132 5.06973H54.786V22.8143C54.786 24.2145 55.7453 25.3491 56.9288 25.3491H73.5946L76.7154 30.1047V43.1782H70.7865C69.6029 43.1782 68.6436 44.313 68.6436 45.7131C68.6436 47.1133 69.603 48.248 70.7865 48.248H78.8583C80.0419 48.248 81.0011 47.1131 81.0013 45.7131V29.2363C81.0013 28.6735 80.8427 28.126 80.5513 27.6815Z" fill="#1434CB"/>
<path d="M21.0005 30.334H11.1429C9.95921 30.334 9 31.4688 9 32.8689C9 34.269 9.95934 35.4037 11.1429 35.4037H21.0004C22.184 35.4037 23.1432 34.2689 23.1432 32.8689C23.1434 31.4688 22.184 30.334 21.0005 30.334Z" fill="#1434CB"/>
<path d="M20.4294 20.3633H2.14288C0.959343 20.3633 0 21.4981 0 22.8983C0 24.2985 0.959343 25.4332 2.14288 25.4332H20.4294C21.613 25.4332 22.5723 24.2983 22.5723 22.8983C22.5723 21.4983 21.613 20.3633 20.4294 20.3633Z" fill="#1434CB"/>
<path d="M20.4294 10.3926H2.14288C0.95921 10.3926 0 11.5274 0 12.9274C0 14.3276 0.959343 15.4623 2.14288 15.4623H20.4294C21.613 15.4623 22.5723 14.3275 22.5723 12.9274C22.5724 11.5274 21.613 10.3926 20.4294 10.3926Z" fill="#1434CB"/>
</svg>
