<svg width="60" height="54" viewBox="0 0 60 54" fill="none" xmlns="http://www.w3.org/2000/svg">
<path d="M14.704 4H6.29602C5.9523 4 5.62265 4.12767 5.3796 4.35491C5.13655 4.58216 5 4.89037 5 5.21175V12.6882C5 13.0096 5.13655 13.3178 5.3796 13.5451C5.62265 13.7723 5.9523 13.9 6.29602 13.9H14.704C15.0477 13.9 15.3774 13.7723 15.6204 13.5451C15.8635 13.3178 16 13.0096 16 12.6882V5.21175C16 4.89037 15.8635 4.58216 15.6204 4.35491C15.3774 4.12767 15.0477 4 14.704 4ZM13.408 11.4765H7.59205V6.4235H13.408V11.4765Z" fill="#1434CB"/>
<path d="M14.704 15H6.29602C5.9523 15 5.62265 15.1277 5.3796 15.3549C5.13655 15.5822 5 15.8904 5 16.2118V23.6882C5 24.0096 5.13655 24.3178 5.3796 24.5451C5.62265 24.7723 5.9523 24.9 6.29602 24.9H14.704C15.0477 24.9 15.3774 24.7723 15.6204 24.5451C15.8635 24.3178 16 24.0096 16 23.6882V16.2118C16 15.8904 15.8635 15.5822 15.6204 15.3549C15.3774 15.1277 15.0477 15 14.704 15ZM13.408 22.4765H7.59205V17.4235H13.408V22.4765Z" fill="#1434CB"/>
<path d="M29.704 15H21.296C20.9523 15 20.6226 15.1277 20.3796 15.3549C20.1365 15.5822 20 15.8904 20 16.2118V23.6882C20 24.0096 20.1365 24.3178 20.3796 24.5451C20.6226 24.7723 20.9523 24.9 21.296 24.9H29.704C30.0477 24.9 30.3774 24.7723 30.6204 24.5451C30.8635 24.3178 31 24.0096 31 23.6882V16.2118C31 15.8904 30.8635 15.5822 30.6204 15.3549C30.3774 15.1277 30.0477 15 29.704 15ZM28.408 22.4765H22.592V17.4235H28.408V22.4765Z" fill="#1434CB"/>
<path d="M29.704 4H21.296C20.9523 4 20.6226 4.12767 20.3796 4.35491C20.1365 4.58216 20 4.89037 20 5.21175V12.6882C20 13.0096 20.1365 13.3178 20.3796 13.5451C20.6226 13.7723 20.9523 13.9 21.296 13.9H29.704C30.0477 13.9 30.3774 13.7723 30.6204 13.5451C30.8635 13.3178 31 13.0096 31 12.6882V5.21175C31 4.89037 30.8635 4.58216 30.6204 4.35491C30.3774 4.12767 30.0477 4 29.704 4ZM28.408 11.4765H22.592V6.4235H28.408V11.4765Z" fill="#1434CB"/>
<path d="M52.8022 20H40.1978C39.8801 20 39.5755 20.1288 39.3508 20.3581C39.1262 20.5874 39 20.8983 39 21.2226V25.7774C39 26.1017 39.1262 26.4126 39.3508 26.6419C39.5755 26.8712 39.8801 27 40.1978 27H52.8022C53.1199 27 53.4246 26.8712 53.6492 26.6419C53.8738 26.4126 54 26.1017 54 25.7774V21.2226C54 20.8983 53.8738 20.5874 53.6492 20.3581C53.4246 20.1288 53.1199 20 52.8022 20ZM51.6044 24.5549H41.3956V22.4451H51.6044V24.5549Z" fill="#1434CB"/>
<path d="M2 2V52H12.5119V40.0633C12.5119 39.7561 12.6342 39.4614 12.8519 39.2441C13.0696 39.0269 13.3648 38.9048 13.6727 38.9048H22.3273C22.6352 38.9048 22.9304 39.0269 23.1481 39.2441C23.3658 39.4614 23.4881 39.7561 23.4881 40.0633V52H34V2H2ZM14.9866 34.7473C14.9866 35.0546 14.8643 35.3492 14.6466 35.5665C14.4289 35.7838 14.1337 35.9058 13.8258 35.9058H6.29501C5.98714 35.9058 5.69189 35.7838 5.47419 35.5665C5.2565 35.3492 5.1342 35.0546 5.1342 34.7473V27.5988C5.1342 27.2915 5.2565 26.9969 5.47419 26.7796C5.69189 26.5624 5.98714 26.4403 6.29501 26.4403H13.8258C14.1337 26.4403 14.4289 26.5624 14.6466 26.7796C14.8643 26.9969 14.9866 27.2915 14.9866 27.5988V34.7473ZM14.9866 23.8098C14.9866 24.1171 14.8643 24.4117 14.6466 24.629C14.4289 24.8463 14.1337 24.9683 13.8258 24.9683H6.29501C5.98714 24.9683 5.69189 24.8463 5.47419 24.629C5.2565 24.4117 5.1342 24.1171 5.1342 23.8098V16.6606C5.1342 16.3533 5.2565 16.0587 5.47419 15.8414C5.69189 15.6241 5.98714 15.5021 6.29501 15.5021H13.8258C14.1337 15.5021 14.4289 15.6241 14.6466 15.8414C14.8643 16.0587 14.9866 16.3533 14.9866 16.6606V23.8098ZM14.9866 12.8716C14.9866 13.1789 14.8643 13.4735 14.6466 13.6908C14.4289 13.908 14.1337 14.0301 13.8258 14.0301H6.29501C5.98714 14.0301 5.69189 13.908 5.47419 13.6908C5.2565 13.4735 5.1342 13.1789 5.1342 12.8716V5.72234C5.1342 5.41509 5.2565 5.12043 5.47419 4.90317C5.69189 4.68591 5.98714 4.56386 6.29501 4.56386H13.8258C14.1337 4.56386 14.4289 4.68591 14.6466 4.90317C14.8643 5.12043 14.9866 5.41509 14.9866 5.72234V12.8716ZM30.8658 34.7473C30.8658 35.0546 30.7435 35.3492 30.5258 35.5665C30.3081 35.7838 30.0129 35.9058 29.705 35.9058H22.1728C21.8649 35.9058 21.5696 35.7838 21.3519 35.5665C21.1342 35.3492 21.0119 35.0546 21.0119 34.7473V27.5988C21.0119 27.2915 21.1342 26.9969 21.3519 26.7796C21.5696 26.5624 21.8649 26.4403 22.1728 26.4403H29.705C30.0129 26.4403 30.3081 26.5624 30.5258 26.7796C30.7435 26.9969 30.8658 27.2915 30.8658 27.5988V34.7473ZM30.8658 23.8098C30.8658 24.1171 30.7435 24.4117 30.5258 24.629C30.3081 24.8463 30.0129 24.9683 29.705 24.9683H22.1728C21.8649 24.9683 21.5696 24.8463 21.3519 24.629C21.1342 24.4117 21.0119 24.1171 21.0119 23.8098V16.6606C21.0119 16.3533 21.1342 16.0587 21.3519 15.8414C21.5696 15.6241 21.8649 15.5021 22.1728 15.5021H29.705C30.0129 15.5021 30.3081 15.6241 30.5258 15.8414C30.7435 16.0587 30.8658 16.3533 30.8658 16.6606V23.8098ZM30.8658 12.8716C30.8658 13.1789 30.7435 13.4735 30.5258 13.6908C30.3081 13.908 30.0129 14.0301 29.705 14.0301H22.1728C21.8649 14.0301 21.5696 13.908 21.3519 13.6908C21.1342 13.4735 21.0119 13.1789 21.0119 12.8716V5.72234C21.0119 5.41509 21.1342 5.12043 21.3519 4.90317C21.5696 4.68591 21.8649 4.56386 22.1728 4.56386H29.705C30.0129 4.56386 30.3081 4.68591 30.5258 4.90317C30.7435 5.12043 30.8658 5.41509 30.8658 5.72234V12.8716Z" fill="#1434CB"/>
<path d="M35.5898 18V51H41.5389V39.3588C41.5389 39.0592 41.6589 38.7718 41.8726 38.5599C42.0862 38.3481 42.376 38.229 42.6781 38.229H49.5016C49.8037 38.229 50.0935 38.3481 50.3071 38.5599C50.5208 38.7718 50.6408 39.0592 50.6408 39.3588V51H56.5898V18H35.5898ZM53.2233 33.6802C53.2233 33.9798 53.1033 34.2672 52.8897 34.4791C52.676 34.691 52.3862 34.81 52.0841 34.81H40.0956C39.7934 34.81 39.5037 34.691 39.29 34.4791C39.0764 34.2672 38.9563 33.9798 38.9563 33.6802V29.471C38.9563 29.1713 39.0764 28.884 39.29 28.6721C39.5037 28.4602 39.7934 28.3412 40.0956 28.3412H52.0841C52.3862 28.3412 52.676 28.4602 52.8897 28.6721C53.1033 28.884 53.2233 29.1713 53.2233 29.471V33.6802ZM53.2233 25.4454C53.2233 25.745 53.1033 26.0324 52.8897 26.2443C52.676 26.4561 52.3862 26.5752 52.0841 26.5752H40.0956C39.7934 26.5752 39.5037 26.4561 39.29 26.2443C39.0764 26.0324 38.9563 25.745 38.9563 25.4454V21.2362C38.9563 20.9365 39.0764 20.6492 39.29 20.4373C39.5037 20.2254 39.7934 20.1064 40.0956 20.1064H52.0841C52.3862 20.1064 52.676 20.2254 52.8897 20.4373C53.1033 20.6492 53.2233 20.9365 53.2233 21.2362V25.4454Z" fill="#1434CB"/>
<path d="M34.7863 0H1.13804C0.836212 0 0.546748 0.1199 0.333324 0.333323C0.1199 0.546747 0 0.836212 0 1.13804V52.5319C0 52.8337 0.1199 53.1231 0.333324 53.3366C0.546748 53.55 0.836212 53.6699 1.13804 53.6699H34.7863C35.0881 53.6699 35.3776 53.55 35.591 53.3366C35.8044 53.1231 35.9243 52.8337 35.9243 52.5319V1.13804C35.9243 0.836212 35.8044 0.546747 35.591 0.333323C35.3776 0.1199 35.0881 0 34.7863 0ZM2.27608 51.3938V2.27608H33.6482V51.3938H2.27608Z" fill="#1434CB"/>
<path d="M22.7309 38H13.2691C12.9325 38 12.6097 38.1267 12.3717 38.3523C12.1337 38.5778 12 38.8837 12 39.2027V52.7973C12 53.1163 12.1337 53.4222 12.3717 53.6477C12.6097 53.8733 12.9325 54 13.2691 54H22.7309C23.0675 54 23.3903 53.8733 23.6283 53.6477C23.8663 53.4222 24 53.1163 24 52.7973V39.2027C24 38.8837 23.8663 38.5778 23.6283 38.3523C23.3903 38.1267 23.0675 38 22.7309 38ZM14.5382 51.5947V40.4053H21.4618V51.5947H14.5382Z" fill="#1434CB"/>
<path d="M58.0402 15.877H34.7865C34.4846 15.877 34.1952 15.9969 33.9818 16.2103C33.7683 16.4237 33.6484 16.7132 33.6484 17.015V52.5317C33.6484 52.8336 33.7683 53.123 33.9818 53.3365C34.1952 53.5499 34.4846 53.6698 34.7865 53.6698H58.0402C58.342 53.6698 58.6314 53.5499 58.8449 53.3365C59.0583 53.123 59.1782 52.8336 59.1782 52.5317V17.015C59.1782 16.7132 59.0583 16.4237 58.8449 16.2103C58.6314 15.9969 58.342 15.877 58.0402 15.877ZM56.9021 51.3937H35.9245V18.153H56.9021V51.3937Z" fill="#1434CB"/>
<path d="M49.7483 38H42.2517C41.9197 38 41.6013 38.1267 41.3666 38.3523C41.1319 38.5778 41 38.8837 41 39.2027V52.7973C41 53.1163 41.1319 53.4222 41.3666 53.6477C41.6013 53.8733 41.9197 54 42.2517 54H49.7483C50.0803 54 50.3987 53.8733 50.6334 53.6477C50.8681 53.4222 51 53.1163 51 52.7973V39.2027C51 38.8837 50.8681 38.5778 50.6334 38.3523C50.3987 38.1267 50.0803 38 49.7483 38ZM43.5033 51.5947V40.4053H48.4967V51.5947H43.5033Z" fill="#1434CB"/>
<path d="M14.704 26H6.29602C5.9523 26 5.62265 26.1277 5.3796 26.3549C5.13655 26.5822 5 26.8904 5 27.2118V34.6882C5 35.0096 5.13655 35.3178 5.3796 35.5451C5.62265 35.7723 5.9523 35.9 6.29602 35.9H14.704C15.0477 35.9 15.3774 35.7723 15.6204 35.5451C15.8635 35.3178 16 35.0096 16 34.6882V27.2118C16 26.8904 15.8635 26.5822 15.6204 26.3549C15.3774 26.1277 15.0477 26 14.704 26ZM13.408 33.4765H7.59205V28.4235H13.408V33.4765Z" fill="#1434CB"/>
<path d="M29.704 26H21.296C20.9523 26 20.6226 26.1277 20.3796 26.3549C20.1365 26.5822 20 26.8904 20 27.2118V34.6882C20 35.0096 20.1365 35.3178 20.3796 35.5451C20.6226 35.7723 20.9523 35.9 21.296 35.9H29.704C30.0477 35.9 30.3774 35.7723 30.6204 35.5451C30.8635 35.3178 31 35.0096 31 34.6882V27.2118C31 26.8904 30.8635 26.5822 30.6204 26.3549C30.3774 26.1277 30.0477 26 29.704 26ZM28.408 33.4765H22.592V28.4235H28.408V33.4765Z" fill="#1434CB"/>
<path d="M52.8022 28H40.1978C39.8801 28 39.5755 28.1262 39.3508 28.3508C39.1262 28.5755 39 28.8801 39 29.1978V33.6603C39 33.978 39.1262 34.2826 39.3508 34.5072C39.5755 34.7319 39.8801 34.8581 40.1978 34.8581H52.8022C53.1199 34.8581 53.4246 34.7319 53.6492 34.5072C53.8738 34.2826 54 33.978 54 33.6603V29.1978C54 28.8801 53.8738 28.5755 53.6492 28.3508C53.4246 28.1262 53.1199 28 52.8022 28ZM51.6044 32.4625H41.3956V30.3956H51.6044V32.4625Z" fill="#1434CB"/>
</svg>
