<svg width="204" height="37" viewBox="0 0 204 37" fill="none" xmlns="http://www.w3.org/2000/svg">
<path fill-rule="evenodd" clip-rule="evenodd" d="M8.50439 3.40164C8.50439 1.523 10.0273 6.10352e-05 11.906 6.10352e-05H25.5123C27.3909 6.10352e-05 28.9138 1.523 28.9138 3.40164V33.1654C28.9138 35.0441 27.3909 36.567 25.5123 36.567H11.906C10.0273 36.567 8.50439 35.0441 8.50439 33.1654V29.7638H10.2053V31.4646H27.2131V5.10242H10.2053V14.4567H8.50439V3.40164Z" fill="#1434CB"/>
<rect x="17.0078" y="8.50397" width="3.40158" height="19.5591" fill="#FCC014"/>
<rect x="12.7559" y="12.756" width="3.40158" height="15.3071" fill="#FDCD44"/>
<rect x="8.50391" y="16.1575" width="3.40158" height="11.9055" fill="#FDD973"/>
<rect x="4.25195" y="20.4095" width="3.40158" height="7.65354" fill="#FEE6A1"/>
<rect y="23.811" width="3.40158" height="4.25197" fill="#FEECB9"/>
<path d="M59.1885 13.2749V27.8505H56.265V18.3701L52.3601 27.8505H50.1467L46.2209 18.3701V27.8505H43.2974V13.2749H46.6176L51.2534 24.1126L55.8892 13.2749H59.1885ZM67.6174 28.0384C66.5037 28.0384 65.5013 27.7948 64.6104 27.3075C63.7194 26.8064 63.0164 26.1033 62.5013 25.1985C62.0002 24.2936 61.7496 23.2495 61.7496 22.0662C61.7496 20.8829 62.0071 19.8388 62.5222 18.9339C63.0512 18.029 63.7682 17.333 64.673 16.8457C65.5779 16.3445 66.5872 16.094 67.7009 16.094C68.8146 16.094 69.8239 16.3445 70.7288 16.8457C71.6337 17.333 72.3436 18.029 72.8587 18.9339C73.3877 19.8388 73.6522 20.8829 73.6522 22.0662C73.6522 23.2495 73.3808 24.2936 72.8379 25.1985C72.3088 26.1033 71.5849 26.8064 70.6661 27.3075C69.7613 27.7948 68.745 28.0384 67.6174 28.0384ZM67.6174 25.4908C68.1464 25.4908 68.6406 25.3655 69.1 25.1149C69.5733 24.8504 69.9492 24.4606 70.2276 23.9456C70.506 23.4305 70.6453 22.804 70.6453 22.0662C70.6453 20.9664 70.3529 20.1242 69.7682 19.5395C69.1974 18.9409 68.4944 18.6416 67.6591 18.6416C66.8239 18.6416 66.1208 18.9409 65.5501 19.5395C64.9932 20.1242 64.7148 20.9664 64.7148 22.0662C64.7148 23.166 64.9863 24.0152 65.5292 24.6138C66.086 25.1985 66.7821 25.4908 67.6174 25.4908ZM79.1218 17.9733C79.4976 17.4165 80.0127 16.964 80.667 16.616C81.3352 16.268 82.0939 16.094 82.9431 16.094C83.9316 16.094 84.8225 16.3376 85.616 16.8248C86.4235 17.3121 87.0569 18.0081 87.5163 18.913C87.9896 19.804 88.2263 20.8411 88.2263 22.0244C88.2263 23.2077 87.9896 24.2588 87.5163 25.1776C87.0569 26.0825 86.4235 26.7855 85.616 27.2867C84.8225 27.7878 83.9316 28.0384 82.9431 28.0384C82.08 28.0384 81.3213 27.8713 80.667 27.5372C80.0266 27.1892 79.5116 26.7437 79.1218 26.2008V27.8505H76.1983V12.3979H79.1218V17.9733ZM85.2402 22.0244C85.2402 21.3284 85.094 20.7297 84.8016 20.2286C84.5232 19.7135 84.1473 19.3237 83.674 19.0592C83.2146 18.7947 82.7134 18.6624 82.1705 18.6624C81.6415 18.6624 81.1403 18.8016 80.667 19.0801C80.2076 19.3446 79.8317 19.7344 79.5394 20.2495C79.261 20.7645 79.1218 21.3701 79.1218 22.0662C79.1218 22.7622 79.261 23.3678 79.5394 23.8829C79.8317 24.398 80.2076 24.7947 80.667 25.0732C81.1403 25.3377 81.6415 25.4699 82.1705 25.4699C82.7134 25.4699 83.2146 25.3307 83.674 25.0523C84.1473 24.7739 84.5232 24.3771 84.8016 23.862C85.094 23.3469 85.2402 22.7344 85.2402 22.0244ZM92.2349 14.9037C91.7198 14.9037 91.2882 14.7436 90.9402 14.4234C90.6061 14.0893 90.439 13.6786 90.439 13.1914C90.439 12.7041 90.6061 12.3004 90.9402 11.9802C91.2882 11.6461 91.7198 11.4791 92.2349 11.4791C92.7499 11.4791 93.1745 11.6461 93.5087 11.9802C93.8567 12.3004 94.0307 12.7041 94.0307 13.1914C94.0307 13.6786 93.8567 14.0893 93.5087 14.4234C93.1745 14.7436 92.7499 14.9037 92.2349 14.9037ZM93.6757 16.2819V27.8505H90.7522V16.2819H93.6757ZM99.8891 12.3979V27.8505H96.9657V12.3979H99.8891ZM113.933 21.8156C113.933 22.2332 113.905 22.6091 113.85 22.9432H105.393C105.462 23.7785 105.755 24.4328 106.27 24.9061C106.785 25.3794 107.418 25.6161 108.17 25.6161C109.256 25.6161 110.028 25.1497 110.488 24.217H113.641C113.307 25.3307 112.666 26.2495 111.72 26.9734C110.773 27.6834 109.611 28.0384 108.233 28.0384C107.119 28.0384 106.116 27.7948 105.226 27.3075C104.348 26.8064 103.659 26.1033 103.158 25.1985C102.671 24.2936 102.427 23.2495 102.427 22.0662C102.427 20.869 102.671 19.8179 103.158 18.913C103.645 18.0081 104.328 17.3121 105.205 16.8248C106.082 16.3376 107.091 16.094 108.233 16.094C109.332 16.094 110.314 16.3306 111.177 16.8039C112.054 17.2773 112.729 17.9524 113.202 18.8295C113.69 19.6926 113.933 20.688 113.933 21.8156ZM110.905 20.9803C110.891 20.2286 110.62 19.63 110.091 19.1845C109.562 18.7251 108.915 18.4954 108.149 18.4954C107.425 18.4954 106.813 18.7181 106.311 19.1636C105.824 19.5952 105.525 20.2007 105.413 20.9803H110.905ZM130.115 20.3747C130.937 20.5279 131.612 20.9386 132.141 21.6068C132.67 22.275 132.934 23.0407 132.934 23.9038C132.934 24.6834 132.739 25.3725 132.35 25.9711C131.974 26.5558 131.424 27.0152 130.7 27.3493C129.976 27.6834 129.12 27.8505 128.132 27.8505H121.846V13.2749H127.86C128.848 13.2749 129.698 13.435 130.408 13.7552C131.132 14.0754 131.674 14.5209 132.036 15.0916C132.412 15.6624 132.6 16.3097 132.6 17.0336C132.6 17.8828 132.371 18.5928 131.911 19.1636C131.466 19.7344 130.867 20.1381 130.115 20.3747ZM124.77 19.2889H127.442C128.138 19.2889 128.674 19.1358 129.05 18.8295C129.426 18.5093 129.614 18.0569 129.614 17.4722C129.614 16.8875 129.426 16.435 129.05 16.1148C128.674 15.7947 128.138 15.6346 127.442 15.6346H124.77V19.2889ZM127.714 25.4699C128.424 25.4699 128.974 25.3029 129.364 24.9688C129.767 24.6347 129.969 24.1613 129.969 23.5488C129.969 22.9223 129.76 22.4351 129.343 22.0871C128.925 21.7251 128.361 21.5441 127.651 21.5441H124.77V25.4699H127.714ZM140.803 28.0384C139.689 28.0384 138.687 27.7948 137.796 27.3075C136.905 26.8064 136.202 26.1033 135.687 25.1985C135.186 24.2936 134.935 23.2495 134.935 22.0662C134.935 20.8829 135.193 19.8388 135.708 18.9339C136.237 18.029 136.954 17.333 137.858 16.8457C138.763 16.3445 139.773 16.094 140.886 16.094C142 16.094 143.009 16.3445 143.914 16.8457C144.819 17.333 145.529 18.029 146.044 18.9339C146.573 19.8388 146.838 20.8829 146.838 22.0662C146.838 23.2495 146.566 24.2936 146.023 25.1985C145.494 26.1033 144.77 26.8064 143.852 27.3075C142.947 27.7948 141.93 28.0384 140.803 28.0384ZM140.803 25.4908C141.332 25.4908 141.826 25.3655 142.285 25.1149C142.759 24.8504 143.135 24.4606 143.413 23.9456C143.691 23.4305 143.831 22.804 143.831 22.0662C143.831 20.9664 143.538 20.1242 142.954 19.5395C142.383 18.9409 141.68 18.6416 140.845 18.6416C140.009 18.6416 139.306 18.9409 138.736 19.5395C138.179 20.1242 137.9 20.9664 137.9 22.0662C137.9 23.166 138.172 24.0152 138.715 24.6138C139.271 25.1985 139.968 25.4908 140.803 25.4908ZM154.521 28.0384C153.407 28.0384 152.405 27.7948 151.514 27.3075C150.623 26.8064 149.92 26.1033 149.405 25.1985C148.903 24.2936 148.653 23.2495 148.653 22.0662C148.653 20.8829 148.91 19.8388 149.425 18.9339C149.955 18.029 150.671 17.333 151.576 16.8457C152.481 16.3445 153.491 16.094 154.604 16.094C155.718 16.094 156.727 16.3445 157.632 16.8457C158.537 17.333 159.247 18.029 159.762 18.9339C160.291 19.8388 160.556 20.8829 160.556 22.0662C160.556 23.2495 160.284 24.2936 159.741 25.1985C159.212 26.1033 158.488 26.8064 157.569 27.3075C156.665 27.7948 155.648 28.0384 154.521 28.0384ZM154.521 25.4908C155.05 25.4908 155.544 25.3655 156.003 25.1149C156.477 24.8504 156.852 24.4606 157.131 23.9456C157.409 23.4305 157.549 22.804 157.549 22.0662C157.549 20.9664 157.256 20.1242 156.672 19.5395C156.101 18.9409 155.398 18.6416 154.562 18.6416C153.727 18.6416 153.024 18.9409 152.453 19.5395C151.897 20.1242 151.618 20.9664 151.618 22.0662C151.618 23.166 151.89 24.0152 152.432 24.6138C152.989 25.1985 153.685 25.4908 154.521 25.4908ZM167.529 28.0384C166.582 28.0384 165.733 27.8713 164.981 27.5372C164.229 27.1892 163.631 26.7228 163.185 26.1381C162.754 25.5535 162.517 24.9061 162.475 24.1961H165.419C165.475 24.6416 165.691 25.0105 166.067 25.3029C166.457 25.5952 166.937 25.7414 167.508 25.7414C168.065 25.7414 168.496 25.63 168.802 25.4073C169.123 25.1845 169.283 24.8992 169.283 24.5511C169.283 24.1753 169.088 23.8968 168.698 23.7158C168.322 23.521 167.716 23.3121 166.881 23.0894C166.018 22.8806 165.308 22.6648 164.751 22.4421C164.208 22.2193 163.735 21.8782 163.331 21.4188C162.941 20.9594 162.747 20.3399 162.747 19.5604C162.747 18.92 162.928 18.3353 163.29 17.8063C163.665 17.2773 164.194 16.8596 164.877 16.5534C165.573 16.2471 166.387 16.094 167.32 16.094C168.698 16.094 169.798 16.442 170.619 17.1381C171.44 17.8202 171.893 18.746 171.976 19.9153H169.178C169.136 19.4559 168.942 19.094 168.594 18.8295C168.259 18.5511 167.807 18.4118 167.236 18.4118C166.707 18.4118 166.297 18.5093 166.004 18.7042C165.726 18.8991 165.587 19.1706 165.587 19.5186C165.587 19.9084 165.781 20.2077 166.171 20.4165C166.561 20.6114 167.167 20.8133 167.988 21.0221C168.823 21.2309 169.512 21.4467 170.055 21.6694C170.598 21.8922 171.065 22.2402 171.454 22.7135C171.858 23.1729 172.067 23.7855 172.081 24.5511C172.081 25.2193 171.893 25.818 171.517 26.347C171.155 26.876 170.626 27.2936 169.93 27.5999C169.248 27.8922 168.447 28.0384 167.529 28.0384ZM178.286 18.6833V24.2797C178.286 24.6695 178.376 24.9548 178.557 25.1358C178.752 25.3029 179.072 25.3864 179.518 25.3864H180.875V27.8505H179.038C176.574 27.8505 175.342 26.6532 175.342 24.2588V18.6833H173.963V16.2819H175.342V13.4211H178.286V16.2819H180.875V18.6833H178.286ZM194.134 21.8156C194.134 22.2332 194.106 22.6091 194.05 22.9432H185.593C185.663 23.7785 185.955 24.4328 186.47 24.9061C186.985 25.3794 187.619 25.6161 188.37 25.6161C189.456 25.6161 190.229 25.1497 190.688 24.217H193.841C193.507 25.3307 192.867 26.2495 191.92 26.9734C190.974 27.6834 189.811 28.0384 188.433 28.0384C187.319 28.0384 186.317 27.7948 185.426 27.3075C184.549 26.8064 183.86 26.1033 183.359 25.1985C182.871 24.2936 182.628 23.2495 182.628 22.0662C182.628 20.869 182.871 19.8179 183.359 18.913C183.846 18.0081 184.528 17.3121 185.405 16.8248C186.282 16.3376 187.291 16.094 188.433 16.094C189.533 16.094 190.514 16.3306 191.377 16.8039C192.254 17.2773 192.93 17.9524 193.403 18.8295C193.89 19.6926 194.134 20.688 194.134 21.8156ZM191.106 20.9803C191.092 20.2286 190.82 19.63 190.291 19.1845C189.762 18.7251 189.115 18.4954 188.349 18.4954C187.626 18.4954 187.013 18.7181 186.512 19.1636C186.025 19.5952 185.725 20.2007 185.614 20.9803H191.106ZM199.593 18.0777C199.968 17.4652 200.456 16.9849 201.054 16.6369C201.667 16.2889 202.363 16.1148 203.143 16.1148V19.1845H202.37C201.451 19.1845 200.755 19.4003 200.282 19.8318C199.822 20.2634 199.593 21.0151 199.593 22.0871V27.8505H196.669V16.2819H199.593V18.0777Z" fill="#06103D"/>
</svg>
