<svg width="52" height="44" viewBox="0 0 52 44" fill="none" xmlns="http://www.w3.org/2000/svg">
<path d="M34.2252 13.5887L26.8672 18V14.334C26.8671 14.0226 26.7 13.7352 26.4294 13.581C26.1588 13.4269 25.8264 13.4298 25.5585 13.5887L18.2005 18V14.334C18.2005 14.0226 18.0334 13.7352 17.7628 13.581C17.4922 13.4269 17.1597 13.4298 16.8919 13.5887L9.53385 18V14.334C9.5338 14.0226 9.36669 13.7352 9.0961 13.581C8.82551 13.4269 8.49304 13.4298 8.22519 13.5887L0.867188 18V19.7333H35.5339V14.334C35.5338 14.0226 35.3667 13.7352 35.0961 13.581C34.8255 13.4269 34.493 13.4298 34.2252 13.5887Z" fill="white"/>
<path d="M45.9344 2.59066V6.73333H40.7344V2.59066C40.7367 2.0077 41.2087 1.5357 41.7917 1.53333H44.877C45.46 1.5357 45.932 2.0077 45.9344 2.59066Z" fill="#1434CB"/>
<path d="M48.5328 24.9333H38.1328L40.5075 6.73333L40.7328 5H45.9328L48.5328 24.9333Z" fill="#D0D6F5"/>
<path d="M43.3331 2.59066V6.73333H40.5078L40.7331 4.99999V2.59066C40.7355 2.0077 41.2075 1.5357 41.7905 1.53333H42.2758C42.8588 1.5357 43.3308 2.0077 43.3331 2.59066Z" fill="#1434CB"/>
<path d="M45.8 24.9333H38L40.3747 6.73333L40.6 5H43.2L43.4253 6.73333L45.8 24.9333Z" fill="#1434CB"/>
<path d="M50.7333 24.8927V40.4667H36V24H49.8407C50.0775 23.9998 50.3047 24.0937 50.4721 24.2612C50.6396 24.4287 50.7336 24.6558 50.7333 24.8927Z" fill="#1434CB"/>
<path d="M35.6667 18H1V40.5333H35.6667V18Z" fill="#1434CB"/>
<path d="M9.53398 28.4H5.20065C4.722 28.4 4.33398 28.788 4.33398 29.2667V32.7334C4.33398 33.212 4.722 33.6 5.20065 33.6H9.53398C10.0126 33.6 10.4007 33.212 10.4007 32.7334V29.2667C10.4007 28.788 10.0126 28.4 9.53398 28.4Z" fill="#D0D6F5"/>
<path d="M19.0672 28.4H14.7339C14.2552 28.4 13.8672 28.788 13.8672 29.2667V32.7334C13.8672 33.212 14.2552 33.6 14.7339 33.6H19.0672C19.5458 33.6 19.9339 33.212 19.9339 32.7334V29.2667C19.9339 28.788 19.5458 28.4 19.0672 28.4Z" fill="#D0D6F5"/>
<path d="M32.0674 26.7213V40.5333H23.4007V26.7213C23.3876 26.2283 23.7745 25.8169 24.2674 25.8H31.2007C31.6936 25.8169 32.0805 26.2283 32.0674 26.7213Z" fill="#D0D6F5"/>
<path d="M41.601 33.6H45.0677C45.5464 33.6 45.9344 33.988 45.9344 34.4666V39.6666H40.7344V34.4666C40.7344 33.988 41.1224 33.6 41.601 33.6Z" fill="#D0D6F5"/>
<path d="M51.1339 39.6667V42.2667C51.1339 42.7453 50.7458 43.1334 50.2672 43.1334H1.73385C1.25521 43.1334 0.867188 42.7453 0.867188 42.2667V39.6667H51.1339Z" fill="white"/>
<path d="M48.5339 39.6667V42.2667C48.5339 42.7453 48.1458 43.1334 47.6672 43.1334H1.73385C1.25521 43.1334 0.867188 42.7453 0.867188 42.2667V39.6667H48.5339Z" fill="white"/>
<path d="M1.73333 44H50.2667C51.224 44 52 43.2239 52 42.2666V24.0666C52 23.588 51.612 23.2 51.1333 23.2H49.2899L46.8 4.93843V1.53329C46.8 1.05465 46.412 0.666626 45.9333 0.666626H40.7333C40.2547 0.666626 39.8667 1.05465 39.8667 1.53329V4.94189L37.3767 23.2H36.4V12.8C36.3999 12.4877 36.2319 12.1995 35.96 12.0458C35.6882 11.892 35.3547 11.8964 35.087 12.0572L27.7333 16.4694V12.8C27.7333 12.4877 27.5652 12.1995 27.2934 12.0458C27.0216 11.892 26.688 11.8964 26.4203 12.0572L19.0667 16.4694V12.8C19.0666 12.4877 18.8985 12.1995 18.6267 12.0458C18.3549 11.892 18.0214 11.8964 17.7537 12.0572L13.4203 14.6572C13.0198 14.9079 12.8938 15.4333 13.1372 15.8383C13.3806 16.2433 13.9036 16.3787 14.313 16.1427L17.3333 14.3305V17.1333H10.4V12.8C10.3999 12.4877 10.2319 12.1995 9.96005 12.0458C9.68822 11.892 9.3547 11.8964 9.087 12.0572L0.420333 17.2572C0.394084 17.2782 0.36919 17.3007 0.3458 17.3248C0.298439 17.3601 0.254872 17.4002 0.2158 17.4444C0.180577 17.4865 0.149792 17.5321 0.123933 17.5805C0.0962597 17.6269 0.0733221 17.676 0.0554667 17.727C0.0372283 17.7832 0.0253104 17.8414 0.0199333 17.9003C0.0110925 17.933 0.00443346 17.9663 0 18V42.2666C0 42.7263 0.182619 43.1672 0.507682 43.4923C0.832745 43.8173 1.27362 44 1.73333 44ZM34.6667 18.8666V38.8H32.9333V26.6666C32.9333 25.7093 32.1573 24.9333 31.2 24.9333H24.2667C23.3094 24.9333 22.5333 25.7093 22.5333 26.6666V38.8H1.73333V23.2H7.8C8.27865 23.2 8.66667 22.8119 8.66667 22.3333C8.66667 21.8546 8.27865 21.4666 7.8 21.4666H1.73333V18.8666H34.6667ZM24.2667 37.0666H28.6C29.0786 37.0666 29.4667 36.6786 29.4667 36.2C29.4667 35.7213 29.0786 35.3333 28.6 35.3333H24.2667V33.6H28.6C29.0786 33.6 29.4667 33.2119 29.4667 32.7333C29.4667 32.2546 29.0786 31.8666 28.6 31.8666H24.2667V30.1333H28.6C29.0786 30.1333 29.4667 29.7453 29.4667 29.2666C29.4667 28.788 29.0786 28.4 28.6 28.4H24.2667V26.6666H31.2V38.8H24.2667V37.0666ZM50.2667 42.2666H1.73333V40.5333H50.2667V42.2666ZM45.0667 38.8H41.6V34.4666H45.0667V38.8ZM41.6 2.39996H45.0667V4.13329H41.6V2.39996ZM41.4899 5.86663H45.1767L47.5401 23.2H39.1265L41.4899 5.86663ZM50.2667 24.9333V38.8H46.8V34.4666C46.8 33.5093 46.024 32.7333 45.0667 32.7333H41.6C40.6427 32.7333 39.8667 33.5093 39.8667 34.4666V38.8H36.4V29.2666H39.8667C40.3453 29.2666 40.7333 28.8786 40.7333 28.4C40.7333 27.9213 40.3453 27.5333 39.8667 27.5333H36.4V24.9333H50.2667ZM34.6667 17.1333H29.9953L34.6667 14.3305V17.1333ZM26 17.1333H21.3287L26 14.3305V17.1333ZM8.66667 17.1333H3.99533L8.66667 14.3305V17.1333Z" fill="#1434CB"/>
<path d="M11.2671 23.2H20.8004C21.279 23.2 21.6671 22.812 21.6671 22.3333C21.6671 21.8547 21.279 21.4667 20.8004 21.4667H11.2671C10.7884 21.4667 10.4004 21.8547 10.4004 22.3333C10.4004 22.812 10.7884 23.2 11.2671 23.2Z" fill="#D0D6F5"/>
<path d="M3.4668 29.2667V32.7333C3.4668 33.6906 4.24284 34.4667 5.20013 34.4667H9.53346C10.4908 34.4667 11.2668 33.6906 11.2668 32.7333V29.2667C11.2668 28.3094 10.4908 27.5333 9.53346 27.5333H5.20013C4.24284 27.5333 3.4668 28.3094 3.4668 29.2667ZM9.53346 32.7333H5.20013V29.2667H9.53346V32.7333Z" fill="#1434CB"/>
<path d="M19.0667 27.5333H14.7333C13.776 27.5333 13 28.3094 13 29.2667V32.7333C13 33.6906 13.776 34.4667 14.7333 34.4667H19.0667C20.024 34.4667 20.8 33.6906 20.8 32.7333V29.2667C20.8 28.3094 20.024 27.5333 19.0667 27.5333ZM14.7333 32.7333V29.2667H19.0667V32.7333H14.7333Z" fill="#1434CB"/>
</svg>
