<svg width="56" height="46" viewBox="0 0 56 46" fill="none" xmlns="http://www.w3.org/2000/svg">
<g clip-path="url(#clip0_1_1869)">
<path d="M14.0134 45.47H1.4851C0.664863 45.47 0 44.805 0 43.9849V14.9783C0 14.1582 0.664863 13.4932 1.4851 13.4932H14.0135L14.0134 45.47Z" fill="#1434CB"/>
<path d="M41.9863 45.47H54.5147C55.335 45.47 55.9998 44.8051 55.9998 43.9849V14.9783C55.9998 14.1582 55.335 13.4932 54.5147 13.4932H41.9863V45.47Z" fill="#1434CB"/>
<path d="M11.668 2.02454H44.3333V45.4699H11.668V2.02454Z" fill="#1434CB"/>
<path d="M39.7337 5.94946C40.6096 5.94946 41.3221 6.66209 41.3221 7.538V12.7087C41.3221 13.5845 40.6095 14.2971 39.7337 14.2971H34.563C33.6871 14.2971 32.9746 13.5845 32.9746 12.7087V7.538C32.9746 6.66209 33.6872 5.94946 34.563 5.94946H39.7337Z" fill="#1434CB"/>
<path d="M39.7337 15.0322C40.6096 15.0322 41.3221 15.7449 41.3221 16.6207V21.7914C41.3221 22.6672 40.6095 23.3799 39.7337 23.3799H34.563C33.6871 23.3799 32.9746 22.6672 32.9746 21.7914V16.6207C32.9746 15.7449 33.6872 15.0322 34.563 15.0322H39.7337Z" fill="#1434CB"/>
<path d="M39.7337 24.115C40.6096 24.115 41.3221 24.8276 41.3221 25.7034V30.8741C41.3221 31.7499 40.6095 32.4625 39.7337 32.4625H34.563C33.6871 32.4625 32.9746 31.7499 32.9746 30.8741V25.7034C32.9746 24.8276 33.6872 24.115 34.563 24.115H39.7337Z" fill="#1434CB"/>
<path d="M21.4368 5.94946C22.3127 5.94946 23.0252 6.66209 23.0252 7.538V12.7087C23.0252 13.5845 22.3126 14.2971 21.4368 14.2971H16.2662C15.3903 14.2971 14.6777 13.5845 14.6777 12.7087V7.538C14.6777 6.66209 15.3904 5.94946 16.2662 5.94946H21.4368Z" fill="#1434CB"/>
<path d="M21.4368 15.0322C22.3127 15.0322 23.0252 15.7449 23.0252 16.6207V21.7914C23.0252 22.6672 22.3126 23.3799 21.4368 23.3799H16.2662C15.3903 23.3799 14.6777 22.6672 14.6777 21.7914V16.6207C14.6777 15.7449 15.3904 15.0322 16.2662 15.0322H21.4368Z" fill="#1434CB"/>
<path d="M21.4368 24.115C22.3127 24.115 23.0252 24.8276 23.0252 25.7034V30.8741C23.0252 31.7499 22.3126 32.4625 21.4368 32.4625H16.2662C15.3903 32.4625 14.6777 31.7499 14.6777 30.8741V25.7034C14.6777 24.8276 15.3904 24.115 16.2662 24.115H21.4368Z" fill="#1434CB"/>
<path d="M30.5853 5.94946C31.4612 5.94946 32.1737 6.66209 32.1737 7.538V12.7087C32.1737 13.5845 31.4611 14.2971 30.5853 14.2971H25.4146C24.5387 14.2971 23.8262 13.5845 23.8262 12.7087V7.538C23.8262 6.66209 24.5388 5.94946 25.4146 5.94946H30.5853Z" fill="#1434CB"/>
<path d="M30.5853 15.0322C31.4612 15.0322 32.1737 15.7449 32.1737 16.6207V21.7914C32.1737 22.6672 31.4611 23.3799 30.5853 23.3799H25.4146C24.5387 23.3799 23.8262 22.6672 23.8262 21.7914V16.6207C23.8262 15.7449 24.5388 15.0322 25.4146 15.0322H30.5853Z" fill="#1434CB"/>
<path d="M30.5853 24.115C31.4612 24.115 32.1737 24.8276 32.1737 25.7034V30.8741C32.1737 31.7499 31.4611 32.4625 30.5853 32.4625H25.4146C24.5387 32.4625 23.8262 31.7499 23.8262 30.8741V25.7034C23.8262 24.8276 24.5388 24.115 25.4146 24.115H30.5853Z" fill="#1434CB"/>
<path d="M21.8926 35.9954H34.1079V45.47H21.8926V35.9954Z" fill="#D0D6F5"/>
<path d="M30.515 45.47H34.1079V35.9954H21.8926V36.8475L30.515 45.47Z" fill="#D0D6F5"/>
<path d="M33.5487 45.47H22.4512V37.3501C22.4512 37.0026 22.7329 36.7207 23.0805 36.7207H32.9193C33.2669 36.7207 33.5486 37.0025 33.5486 37.3501L33.5487 45.47Z" fill="#D0D6F5"/>
<path d="M28 35.9954H34.1076V45.47H28V35.9954Z" fill="#D0D6F5"/>
<path d="M34.5817 36.2058H21.4166C21.1369 36.2058 20.9102 35.9791 20.9102 35.6994V35.0241C20.9102 34.7444 21.1369 34.5177 21.4166 34.5177H34.5817C34.8614 34.5177 35.0881 34.7444 35.0881 35.0241V35.6994C35.088 35.9792 34.8614 36.2058 34.5817 36.2058Z" fill="#1434CB"/>
<path d="M16.2653 31.6588C15.8326 31.6588 15.4805 31.3067 15.4805 30.874V25.7033C15.4805 25.2705 15.8325 24.9185 16.2653 24.9185H21.436C21.8688 24.9185 22.2209 25.2705 22.2209 25.7033V30.874C22.2209 31.3067 21.8689 31.6588 21.436 31.6588H16.2653Z" fill="#D0D6F5"/>
<path d="M16.2653 22.5761C15.8326 22.5761 15.4805 22.224 15.4805 21.7913V16.6205C15.4805 16.1878 15.8325 15.8358 16.2653 15.8358H21.436C21.8688 15.8358 22.2209 16.1878 22.2209 16.6205V21.7913C22.2209 22.224 21.8689 22.5761 21.436 22.5761H16.2653Z" fill="#D0D6F5"/>
<path d="M16.2653 13.4933C15.8326 13.4933 15.4805 13.1413 15.4805 12.7085V7.53788C15.4805 7.10514 15.8325 6.75311 16.2653 6.75311H21.436C21.8688 6.75311 22.2209 7.10514 22.2209 7.53788V12.7085C22.2209 13.1413 21.8689 13.4933 21.436 13.4933H16.2653Z" fill="#D0D6F5"/>
<path d="M34.5622 31.6588C34.1295 31.6588 33.7773 31.3067 33.7773 30.874V25.7033C33.7773 25.2705 34.1294 24.9185 34.5622 24.9185H39.7329C40.1656 24.9185 40.5178 25.2705 40.5178 25.7033V30.874C40.5178 31.3067 40.1657 31.6588 39.7329 31.6588H34.5622Z" fill="#D0D6F5"/>
<path d="M34.5622 22.5761C34.1295 22.5761 33.7773 22.224 33.7773 21.7913V16.6205C33.7773 16.1878 34.1294 15.8358 34.5622 15.8358H39.7329C40.1656 15.8358 40.5178 16.1878 40.5178 16.6205V21.7913C40.5178 22.224 40.1657 22.5761 39.7329 22.5761H34.5622Z" fill="#D0D6F5"/>
<path d="M34.5622 13.4933C34.1295 13.4933 33.7773 13.1413 33.7773 12.7085V7.53788C33.7773 7.10514 34.1294 6.75311 34.5622 6.75311H39.7329C40.1656 6.75311 40.5178 7.10514 40.5178 7.53788V12.7085C40.5178 13.1413 40.1657 13.4933 39.7329 13.4933H34.5622Z" fill="#D0D6F5"/>
<path d="M25.4138 31.6588C24.981 31.6588 24.6289 31.3067 24.6289 30.874V25.7033C24.6289 25.2705 24.9809 24.9185 25.4138 24.9185H30.5845C31.0172 24.9185 31.3693 25.2705 31.3693 25.7033V30.874C31.3693 31.3067 31.0173 31.6588 30.5845 31.6588H25.4138Z" fill="#D0D6F5"/>
<path d="M25.4138 22.5761C24.981 22.5761 24.6289 22.224 24.6289 21.7913V16.6205C24.6289 16.1878 24.9809 15.8358 25.4138 15.8358H30.5845C31.0172 15.8358 31.3693 16.1878 31.3693 16.6205V21.7913C31.3693 22.224 31.0173 22.5761 30.5845 22.5761H25.4138Z" fill="#D0D6F5"/>
<path d="M25.4138 13.4933C24.981 13.4933 24.6289 13.1413 24.6289 12.7085V7.53788C24.6289 7.10514 24.9809 6.75311 25.4138 6.75311H30.5845C31.0172 6.75311 31.3693 7.10514 31.3693 7.53788V12.7085C31.3693 13.1413 31.0173 13.4933 30.5845 13.4933H25.4138Z" fill="#D0D6F5"/>
<path d="M44.9125 2.52413H11.0881C10.7871 2.52413 10.543 2.28004 10.543 1.97896V0.517466C10.543 0.216384 10.7871 -0.02771 11.0881 -0.02771H44.9125C45.2136 -0.02771 45.4577 0.216384 45.4577 0.517466V1.97896C45.4575 2.28004 45.2136 2.52413 44.9125 2.52413Z" fill="#1434CB"/>
<path d="M8.6087 15.0322C9.48461 15.0322 10.1971 15.7449 10.1971 16.6208V21.7914C10.1971 22.6672 9.4845 23.3799 8.6087 23.3799H3.43803C2.56213 23.3799 1.84961 22.6672 1.84961 21.7914V16.6208C1.84961 15.7449 2.56224 15.0322 3.43803 15.0322H8.6087Z" fill="#1434CB"/>
<path d="M8.6087 24.115C9.48461 24.115 10.1971 24.8276 10.1971 25.7034V30.8742C10.1971 31.75 9.4845 32.4626 8.6087 32.4626H3.43803C2.56213 32.4626 1.84961 31.75 1.84961 30.8742V25.7034C1.84961 24.8276 2.56224 24.115 3.43803 24.115H8.6087Z" fill="#1434CB"/>
<path d="M8.6087 33.1978C9.48461 33.1978 10.1971 33.9104 10.1971 34.7862V39.9568C10.1971 40.8326 9.4845 41.5453 8.6087 41.5453H3.43803C2.56213 41.5453 1.84961 40.8326 1.84961 39.9568V34.7862C1.84961 33.9104 2.56224 33.1978 3.43803 33.1978H8.6087Z" fill="#1434CB"/>
<path d="M3.43722 40.7416C3.00449 40.7416 2.65234 40.3895 2.65234 39.9567V34.786C2.65234 34.3533 3.00438 34.0013 3.43722 34.0013H8.60789C9.04063 34.0013 9.39277 34.3533 9.39277 34.786V39.9567C9.39277 40.3895 9.04074 40.7416 8.60789 40.7416H3.43722Z" fill="#D0D6F5"/>
<path d="M3.43722 31.6588C3.00449 31.6588 2.65234 31.3068 2.65234 30.8741V25.7033C2.65234 25.2705 3.00438 24.9185 3.43722 24.9185H8.60789C9.04063 24.9185 9.39277 25.2705 9.39277 25.7033V30.8741C9.39277 31.3068 9.04074 31.6588 8.60789 31.6588H3.43722Z" fill="#D0D6F5"/>
<path d="M3.43722 22.5761C3.00449 22.5761 2.65234 22.2241 2.65234 21.7913V16.6206C2.65234 16.1879 3.00438 15.8359 3.43722 15.8359H8.60789C9.04063 15.8359 9.39277 16.1879 9.39277 16.6206V21.7913C9.39277 22.2241 9.04074 22.5761 8.60789 22.5761H3.43722Z" fill="#D0D6F5"/>
<path d="M52.5618 15.0322C53.4377 15.0322 54.1502 15.7449 54.1502 16.6208V21.7914C54.1502 22.6672 53.4376 23.3799 52.5618 23.3799H47.3912C46.5153 23.3799 45.8027 22.6672 45.8027 21.7914V16.6208C45.8027 15.7449 46.5154 15.0322 47.3912 15.0322H52.5618Z" fill="#1434CB"/>
<path d="M52.5618 24.115C53.4377 24.115 54.1502 24.8276 54.1502 25.7034V30.8742C54.1502 31.75 53.4376 32.4626 52.5618 32.4626H47.3912C46.5153 32.4626 45.8027 31.75 45.8027 30.8742V25.7034C45.8027 24.8276 46.5154 24.115 47.3912 24.115H52.5618Z" fill="#1434CB"/>
<path d="M52.5618 33.1978C53.4377 33.1978 54.1502 33.9104 54.1502 34.7862V39.9568C54.1502 40.8326 53.4376 41.5453 52.5618 41.5453H47.3912C46.5153 41.5453 45.8027 40.8326 45.8027 39.9568V34.7862C45.8027 33.9104 46.5154 33.1978 47.3912 33.1978H52.5618Z" fill="#1434CB"/>
<path d="M47.3923 40.7416C46.9596 40.7416 46.6074 40.3895 46.6074 39.9567V34.786C46.6074 34.3533 46.9595 34.0013 47.3923 34.0013H52.563C52.9957 34.0013 53.3478 34.3533 53.3478 34.786V39.9567C53.3478 40.3895 52.9958 40.7416 52.563 40.7416H47.3923Z" fill="#D0D6F5"/>
<path d="M47.3923 31.6588C46.9596 31.6588 46.6074 31.3068 46.6074 30.8741V25.7033C46.6074 25.2705 46.9595 24.9185 47.3923 24.9185H52.563C52.9957 24.9185 53.3478 25.2705 53.3478 25.7033V30.8741C53.3478 31.3068 52.9958 31.6588 52.563 31.6588H47.3923Z" fill="#D0D6F5"/>
<path d="M47.3923 22.5761C46.9596 22.5761 46.6074 22.2241 46.6074 21.7913V16.6206C46.6074 16.1879 46.9595 15.8359 47.3923 15.8359H52.563C52.9957 15.8359 53.3478 16.1879 53.3478 16.6206V21.7913C53.3478 22.2241 52.9958 22.5761 52.563 22.5761H47.3923Z" fill="#D0D6F5"/>
</g>
<defs>
<clipPath id="clip0_1_1869">
<rect width="56" height="46" fill="white"/>
</clipPath>
</defs>
</svg>
