<svg width="73" height="54" viewBox="0 0 73 54" fill="none" xmlns="http://www.w3.org/2000/svg">    <path d="M4.864 48.112C4.11733 48.112 3.44533 47.984 2.848 47.728C2.25067 47.4613 1.78133 47.088 1.44 46.608C1.09867 46.128 0.928 45.568 0.928 44.928H2.88C2.92267 45.408 3.10933 45.8027 3.44 46.112C3.78133 46.4213 4.256 46.576 4.864 46.576C5.49333 46.576 5.984 46.4267 6.336 46.128C6.688 45.8187 6.864 45.424 6.864 44.944C6.864 44.5707 6.752 44.2667 6.528 44.032C6.31467 43.7973 6.04267 43.616 5.712 43.488C5.392 43.36 4.944 43.2213 4.368 43.072C3.64267 42.88 3.05067 42.688 2.592 42.496C2.144 42.2933 1.76 41.984 1.44 41.568C1.12 41.152 0.96 40.5973 0.96 39.904C0.96 39.264 1.12 38.704 1.44 38.224C1.76 37.744 2.208 37.376 2.784 37.12C3.36 36.864 4.02667 36.736 4.784 36.736C5.86133 36.736 6.74133 37.008 7.424 37.552C8.11733 38.0853 8.50133 38.8213 8.576 39.76H6.56C6.528 39.3547 6.336 39.008 5.984 38.72C5.632 38.432 5.168 38.288 4.592 38.288C4.06933 38.288 3.64267 38.4213 3.312 38.688C2.98133 38.9547 2.816 39.3387 2.816 39.84C2.816 40.1813 2.91733 40.464 3.12 40.688C3.33333 40.9013 3.6 41.072 3.92 41.2C4.24 41.328 4.67733 41.4667 5.232 41.616C5.968 41.8187 6.56533 42.0213 7.024 42.224C7.49333 42.4267 7.888 42.7413 8.208 43.168C8.53867 43.584 8.704 44.144 8.704 44.848C8.704 45.4133 8.54933 45.9467 8.24 46.448C7.94133 46.9493 7.49867 47.3547 6.912 47.664C6.336 47.9627 5.65333 48.112 4.864 48.112ZM18.9363 43.376C18.9363 43.7067 18.9149 44.0053 18.8723 44.272H12.1363C12.1896 44.976 12.4509 45.5413 12.9203 45.968C13.3896 46.3947 13.9656 46.608 14.6483 46.608C15.6296 46.608 16.3229 46.1973 16.7283 45.376H18.6962C18.4296 46.1867 17.9443 46.8533 17.2403 47.376C16.5469 47.888 15.6829 48.144 14.6483 48.144C13.8056 48.144 13.0483 47.9573 12.3763 47.584C11.7149 47.2 11.1923 46.6667 10.8083 45.984C10.4349 45.2907 10.2483 44.4907 10.2483 43.584C10.2483 42.6773 10.4296 41.8827 10.7923 41.2C11.1656 40.5067 11.6829 39.9733 12.3443 39.6C13.0163 39.2267 13.7843 39.04 14.6483 39.04C15.4803 39.04 16.2216 39.2213 16.8723 39.584C17.5229 39.9467 18.0296 40.4587 18.3923 41.12C18.7549 41.7707 18.9363 42.5227 18.9363 43.376ZM17.0323 42.8C17.0216 42.128 16.7816 41.5893 16.3123 41.184C15.8429 40.7787 15.2616 40.576 14.5683 40.576C13.9389 40.576 13.4003 40.7787 12.9523 41.184C12.5043 41.5787 12.2376 42.1173 12.1523 42.8H17.0323ZM22.5553 36.16V48H20.7313V36.16H22.5553ZM33.03 43.376C33.03 43.7067 33.0087 44.0053 32.966 44.272H26.23C26.2833 44.976 26.5447 45.5413 27.014 45.968C27.4833 46.3947 28.0593 46.608 28.742 46.608C29.7233 46.608 30.4167 46.1973 30.822 45.376H32.79C32.5233 46.1867 32.038 46.8533 31.334 47.376C30.6407 47.888 29.7767 48.144 28.742 48.144C27.8993 48.144 27.142 47.9573 26.47 47.584C25.8087 47.2 25.286 46.6667 24.902 45.984C24.5287 45.2907 24.342 44.4907 24.342 43.584C24.342 42.6773 24.5233 41.8827 24.886 41.2C25.2593 40.5067 25.7767 39.9733 26.438 39.6C27.11 39.2267 27.878 39.04 28.742 39.04C29.574 39.04 30.3153 39.2213 30.966 39.584C31.6167 39.9467 32.1233 40.4587 32.486 41.12C32.8487 41.7707 33.03 42.5227 33.03 43.376ZM31.126 42.8C31.1153 42.128 30.8753 41.5893 30.406 41.184C29.9367 40.7787 29.3553 40.576 28.662 40.576C28.0327 40.576 27.494 40.7787 27.046 41.184C26.598 41.5787 26.3313 42.1173 26.246 42.8H31.126ZM34.217 43.584C34.217 42.6773 34.3983 41.8827 34.761 41.2C35.1343 40.5067 35.6463 39.9733 36.297 39.6C36.9477 39.2267 37.6943 39.04 38.537 39.04C39.6037 39.04 40.4837 39.296 41.177 39.808C41.881 40.3093 42.3557 41.0293 42.601 41.968H40.633C40.473 41.5307 40.217 41.1893 39.865 40.944C39.513 40.6987 39.0703 40.576 38.537 40.576C37.7903 40.576 37.193 40.8427 36.745 41.376C36.3077 41.8987 36.089 42.6347 36.089 43.584C36.089 44.5333 36.3077 45.2747 36.745 45.808C37.193 46.3413 37.7903 46.608 38.537 46.608C39.593 46.608 40.2917 46.144 40.633 45.216H42.601C42.345 46.112 41.865 46.8267 41.161 47.36C40.457 47.8827 39.5823 48.144 38.537 48.144C37.6943 48.144 36.9477 47.9573 36.297 47.584C35.6463 47.2 35.1343 46.6667 34.761 45.984C34.3983 45.2907 34.217 44.4907 34.217 43.584ZM46.5468 40.672V45.552C46.5468 45.8827 46.6214 46.1227 46.7708 46.272C46.9308 46.4107 47.1974 46.48 47.5708 46.48H48.6908V48H47.2508C46.4294 48 45.8001 47.808 45.3628 47.424C44.9254 47.04 44.7068 46.416 44.7068 45.552V40.672H43.6668V39.184H44.7068V36.992H46.5468V39.184H48.6908V40.672H46.5468ZM61.2321 45.728H56.5761L55.7761 48H53.8721L57.8561 36.864H59.9681L63.9521 48H62.0321L61.2321 45.728ZM60.7201 44.24L58.9121 39.072L57.0881 44.24H60.7201ZM67.5084 36.16V48H65.6844V36.16H67.5084ZM71.7271 36.16V48H69.9031V36.16H71.7271Z"          fill="black"/>    <path d="M43.0712 17.485L41.6572 16.071L42.3642 15.364C43.2 14.5283 43.8629 13.5361 44.3152 12.4442C44.7675 11.3523 45.0003 10.1819 45.0003 9.00001C45.0003 7.81811 44.7675 6.64778 44.3152 5.55584C43.8629 4.4639 43.2 3.47174 42.3642 2.63601L41.6572 1.92901L43.0712 0.515015L43.7782 1.22201C45.841 3.2849 46.9999 6.08272 46.9999 9.00001C46.9999 11.9173 45.841 14.7151 43.7782 16.778L43.0712 17.485Z"          fill="black"/>    <path d="M40.2421 14.656L38.8291 13.241L39.5361 12.535C40.4735 11.5974 41 10.3258 41 8.99999C41 7.67417 40.4735 6.40263 39.5361 5.46499L38.8291 4.75899L40.2421 3.34399L40.9501 4.05099C41.6002 4.70101 42.1159 5.47272 42.4677 6.32205C42.8195 7.17137 43.0006 8.08168 43.0006 9.00099C43.0006 9.92031 42.8195 10.8306 42.4677 11.6799C42.1159 12.5293 41.6002 13.301 40.9501 13.951L40.2421 14.656Z"          fill="black"/>    <path d="M28.9287 17.485L28.2217 16.778C26.1589 14.7151 25 11.9173 25 9.00001C25 6.08272 26.1589 3.2849 28.2217 1.22201L28.9287 0.515015L30.3427 1.92901L29.6357 2.63601C28.7999 3.47174 28.137 4.4639 27.6847 5.55584C27.2324 6.64778 26.9996 7.81811 26.9996 9.00001C26.9996 10.1819 27.2324 11.3523 27.6847 12.4442C28.137 13.5361 28.7999 14.5283 29.6357 15.364L30.3427 16.071L28.9287 17.485Z"          fill="black"/>    <path d="M31.7585 14.656L31.0505 13.949C30.4004 13.299 29.8847 12.5273 29.5329 11.678C29.1811 10.8287 29 9.91835 29 8.99904C29 8.07973 29.1811 7.16942 29.5329 6.32009C29.8847 5.47077 30.4004 4.69906 31.0505 4.04904L31.7585 3.34204L33.1715 4.75904L32.4645 5.46504C31.5271 6.40268 31.0006 7.67422 31.0006 9.00004C31.0006 10.3259 31.5271 11.5974 32.4645 12.535L33.1715 13.241L31.7585 14.656Z"          fill="black"/>    <path d="M37 22V11.289C37.5264 11.0593 37.9576 10.6553 38.2212 10.145C38.4848 9.6347 38.5646 9.0492 38.4473 8.48697C38.3299 7.92473 38.0226 7.42005 37.5769 7.05778C37.1312 6.6955 36.5744 6.49774 36 6.49774C35.4256 6.49774 34.8688 6.6955 34.4231 7.05778C33.9774 7.42005 33.6701 7.92473 33.5527 8.48697C33.4354 9.0492 33.5152 9.6347 33.7788 10.145C34.0424 10.6553 34.4736 11.0593 35 11.289V22H31V24H41V22H37Z"          fill="black"/></svg>