<svg xmlns="http://www.w3.org/2000/svg" xmlns:xlink="http://www.w3.org/1999/xlink" height="800" width="1200" version="1.0" viewBox="-31.29885 -21.1455 271.2567 126.873"><g transform="translate(-11.2926 -5.866)"><defs><path d="M23.678 18.25C7.165 34.774 7.165 61.549 23.673 78.062c8.26 8.258 19.086 12.386 29.913 12.386 10.823 0 21.646-4.126 29.904-12.38 16.513-16.513 16.513-43.299 0-59.818C75.23 9.994 64.407 5.865 53.582 5.865c-10.825 0-21.647 4.129-29.904 12.385" id="a"/></defs><clipPath id="c"><use height="100%" width="100%" overflow="visible" xlink:href="#a"/></clipPath><radialGradient gradientUnits="userSpaceOnUse" gradientTransform="matrix(42.2909 0 0 -42.2909 22393.26 20986.687)" r="1" cy="495.1074" cx="-528.2388" id="b"><stop offset="0" stop-color="#00aeef"/><stop offset=".2253" stop-color="#00aeef"/><stop offset=".4559" stop-color="#00abec"/><stop offset=".5982" stop-color="#00a6e5"/><stop offset=".7165" stop-color="#009fda"/><stop offset=".8216" stop-color="#0094cc"/><stop offset=".9171" stop-color="#0086b9"/><stop offset="1" stop-color="#0076a3"/></radialGradient><path fill="url(#b)" clip-path="url(#c)" d="M7.166 5.866h92.836v84.583H7.166z"/></g><g transform="translate(-11.2926 -5.866)"><defs><path d="M25.187 41.384c-5.081 5.083-1.33 17.078 8.381 26.786 9.712 9.715 21.706 13.466 26.792 8.382 5.082-5.085 1.332-17.077-8.38-26.793-6.772-6.769-14.655-10.642-20.53-10.642-2.552 0-4.724.729-6.263 2.267" id="d"/></defs><clipPath id="f"><use height="100%" width="100%" overflow="visible" xlink:href="#d"/></clipPath><radialGradient gradientUnits="userSpaceOnUse" gradientTransform="matrix(45.1411 0 0 -45.1427 23935.053 22415.633)" r="1.0021" cy="495.5664" cx="-528.9829" id="e"><stop offset="0" stop-color="#fff"/><stop offset=".4725" stop-color="#fff"/><stop offset=".5148" stop-color="#f5f5f6"/><stop offset=".724" stop-color="#d6d7d9"/><stop offset=".8931" stop-color="#c3c5c7"/><stop offset="1" stop-color="#bcbec0"/></radialGradient><path fill="url(#e)" clip-path="url(#f)" d="M20.107 39.117h45.334v42.519H20.107z"/></g><g transform="translate(-11.2926 -5.866)"><defs><path d="M53.497 29.535c-1.528 0-2.831.438-3.754 1.36-3.053 3.05-.797 10.248 5.027 16.074 5.828 5.828 13.023 8.081 16.073 5.029 3.054-3.05.8-10.25-5.026-16.076-4.062-4.063-8.793-6.387-12.316-6.387z" id="g"/></defs><clipPath id="i"><use height="100%" width="100%" overflow="visible" xlink:href="#g"/></clipPath><radialGradient gradientUnits="userSpaceOnUse" gradientTransform="matrix(45.1407 0 0 -45.1407 23935.049 22414.812)" r="1" cy="495.5703" cx="-528.9873" id="h"><stop offset="0" stop-color="#fff"/><stop offset=".4725" stop-color="#fff"/><stop offset="1" stop-color="#bcbec0"/></radialGradient><path fill="url(#h)" clip-path="url(#i)" d="M46.69 29.535h27.206V55.05H46.69z"/></g><g transform="translate(-11.2926 -5.866)"><defs><path d="M65.593 23.487c-1.829 1.83-.479 6.148 3.017 9.641 3.496 3.497 7.812 4.851 9.644 3.022 1.833-1.833.483-6.151-3.017-9.648-2.438-2.439-5.274-3.833-7.389-3.833-.918 0-1.702.263-2.255.818" id="j"/></defs><clipPath id="l"><use height="100%" width="100%" overflow="visible" xlink:href="#j"/></clipPath><radialGradient gradientUnits="userSpaceOnUse" gradientTransform="matrix(45.1358 0 0 -45.1459 23932.885 22417.019)" r="1.0004" cy="495.5605" cx="-528.9951" id="k"><stop offset="0" stop-color="#fff"/><stop offset=".5" stop-color="#fff"/><stop offset=".5998" stop-color="#dedfe0"/><stop offset=".7019" stop-color="#c6c8ca"/><stop offset=".8036" stop-color="#b5b7b9"/><stop offset=".9036" stop-color="#aaadaf"/><stop offset="1" stop-color="#a7a9ac"/></radialGradient><path fill="url(#k)" clip-path="url(#l)" d="M63.765 22.669h16.321v15.31H63.765z"/></g><path d="M102.2234 28.282c0 1.922-.17 2.483-.976 3.488h7.556c-.85-1.005-.977-1.566-.977-3.488v-13.31c3.311.03 7.271.636 8.943 1.945v-4.843h-23.539v4.843c1.672-1.31 5.173-1.826 8.992-1.855v13.22zm17.52 0c0 1.922-.157 2.513-.909 3.488h18.258v-4.801c-2.504 1.803-7.272 1.814-9.209 1.785h-2.662v-5.5h1.951c1.321 0 3.711.147 5.098.565v-4.093c-1.366.444-3.771.57-5.088.57h-1.961v-5.234h2.662c2.371 0 6.492.503 8.039 1.812v-4.8h-17.127c.791 1.006.948 1.567.948 3.49zm34.031-1.121c0 1.718-2.63 2.42-4.757 2.42-3.824 0-6.484-.58-9.825-2.604v4.318c2.491.83 5.901 1.239 9.581 1.239 5.133 0 9.934-1.338 9.934-6.428 0-8.988-14.869-4.953-14.869-9.358 0-1.772 2.385-2.399 4.467-2.399 3.506 0 7.292 1.061 9.37 3.008v-4.621c-2.688-.856-6.269-1.357-8.997-1.357-4.946 0-9.771 1.484-9.771 6.456-.001 8.607 14.867 4.058 14.867 9.326m19.862 5.324c2.627 0 4.984-.33 7.728-.994v-5.109c-1.938 2.068-4.25 2.876-6.724 2.876-4.789 0-8.073-3.017-8.073-7.36 0-4.283 3.399-7.39 8.151-7.39 2.588 0 4.666.931 6.336 2.579v-5.113c-1.738-.361-3.901-.543-6.104-.543-8.924 0-14.836 4.344-14.836 10.95-.001 6.063 5.408 10.104 13.522 10.104m21.602-18.074c4.028 0 6.701 3.367 6.701 7.523 0 4.154-2.673 7.523-6.701 7.523-4.095 0-6.701-3.369-6.701-7.523 0-4.156 2.607-7.523 6.701-7.523m-.457 18.074c7.728 0 13.065-4.344 13.065-10.679 0-6.213-4.846-10.376-12.082-10.376-7.692 0-13.137 4.465-13.137 10.768.001 6.185 4.884 10.287 12.154 10.287m-9.492 4.914h-14.187c-2.324 0-4.197 1.327-5.105 2.28 0 0-2.217 2.228-3.715 2.993-.066.037-.066.119.025.119h13.56c2.675 0 3.931-.915 5.519-2.352 0 0 2.303-2.197 3.887-2.896.16-.06.137-.144.016-.144m-23.272 0h-14.186c-2.325 0-4.196 1.327-5.106 2.28 0 0-2.217 2.228-3.713 2.993-.067.037-.067.119.023.119h13.56c2.677 0 3.931-.915 5.52-2.352 0 0 2.301-2.197 3.887-2.896.159-.06.138-.144.015-.144m46.544 0h-14.188c-2.324 0-4.195 1.327-5.105 2.28 0 0-2.217 2.228-3.715 2.993-.065.037-.065.119.025.119h13.559c2.677 0 3.933-.915 5.52-2.352 0 0 2.303-2.197 3.887-2.896.161-.06.139-.144.017-.144m-93.088 0h-14.187c-2.323 0-4.196 1.327-5.104 2.28 0 0-2.217 2.228-3.715 2.993-.066.037-.066.119.025.119h13.559c2.676 0 3.931-.915 5.52-2.352 0 0 2.301-2.197 3.886-2.896.16-.06.139-.144.016-.144m23.272 0h-14.187c-2.324 0-4.195 1.327-5.105 2.28 0 0-2.217 2.228-3.715 2.993-.066.037-.066.119.025.119h13.559c2.676 0 3.932-.915 5.52-2.352 0 0 2.301-2.197 3.887-2.896.16-.06.138-.144.016-.144m51.778 26.023h-9.159c.139-3.054 1.354-5.586 4.719-5.586 3.26 0 4.268 2.255 4.44 5.586m2.255 1.248c0-5.065-1.873-8.464-6.451-8.464-4.824 0-7.183 3.227-7.183 8.326 0 5.238 2.741 8.672 7.979 8.672 2.566 0 4.094-.452 4.961-.833l-.556-1.63c-.971.347-2.221.625-4.024.625-3.711 0-5.758-1.7-6.141-6.211h10.893c.349 0 .522-.139.522-.485m-16.314 8.118V49.059c0-.207-.104-.312-.312-.312-.208 0-.729.069-1.076.104l-1.074.103c.276.313.381.901.381 1.562v21.959c0 .207.139.312.347.312h1.734zm-5.541 0V56.934c0-.209-.104-.313-.311-.313h-2.117c.243.348.348.903.348 1.562v14.293c0 .207.139.312.346.312zm.555-21.717c0-.762-.45-1.457-1.595-1.457-1.18 0-1.631.729-1.631 1.457 0 .658.451 1.388 1.631 1.388 1.145 0 1.595-.73 1.595-1.388m-7.551 13.494c0 4.893-2.428 6.904-5.549 6.904-1.25 0-2.742-.209-3.99-.799V59.952c1.389-1.284 2.845-1.907 4.578-1.907 2.914 0 4.961 2.184 4.961 6.52m2.289-.347c0-5.065-2.705-8.013-6.832-8.013-2.395 0-4.303 1.074-4.996 1.666v-8.812c0-.207-.105-.312-.312-.312-.207 0-.729.069-1.074.104l-1.077.103c.278.313.383.901.383 1.562v19.6c0 .521-.035 1.318-.347 1.839 1.49.762 3.676 1.249 6.313 1.249 4.578 0 7.942-2.741 7.942-8.986m-18.77.487c0 3.712-1.491 6.799-5.099 6.799-3.573 0-5.1-3.087-5.1-6.799 0-3.782 1.596-6.8 5.1-6.8 3.573 0 5.099 3.018 5.099 6.8m2.29 0c0-5.69-2.984-8.499-7.389-8.499-4.371 0-7.391 2.809-7.391 8.499 0 5.203 3.053 8.499 7.391 8.499 4.337 0 7.389-3.262 7.389-8.499m-17.501 8.083V62.034c0-3.678-1.631-5.828-5.551-5.828-2.185 0-4.267 1.145-5.654 2.773-.763-1.803-2.394-2.773-5.03-2.773-2.254 0-4.093 1.145-5.308 2.566-.035-.625-.069-.937-.138-1.248-.036-.209-.07-.451-.104-.59-.07-.209-.175-.313-.451-.313h-1.701c.104.243.174.625.279 1.181.103.764.207 1.77.207 2.844v11.83c0 .207.104.312.312.312h1.771V60.994c1.006-1.527 2.705-2.949 4.821-2.949 2.739 0 3.78 1.664 3.78 4.647v9.783c0 .207.104.312.312.312h1.77V60.994c1.006-1.527 2.705-2.949 4.822-2.949 2.74 0 3.78 1.664 3.78 4.647v9.783c0 .207.104.312.312.312h1.771z" fill="#6D6E71"/></svg>